<svg xmlns="http://www.w3.org/2000/svg" xmlns:xlink="http://www.w3.org/1999/xlink" width="500" zoomAndPan="magnify" viewBox="0 0 375 374.999991" height="500" preserveAspectRatio="xMidYMid meet" version="1.0"><defs><g/><clipPath id="5ab7c9ed75"><path d="M 23.941406 26.902344 L 362 26.902344 L 362 365 L 23.941406 365 Z M 23.941406 26.902344 " clip-rule="nonzero"/></clipPath></defs><g clip-path="url(#5ab7c9ed75)"><path fill="#83c8b1" d="M 348.335938 26.902344 L 290.890625 26.902344 L 277.375 195.855469 L 226.6875 195.855469 L 226.6875 145.171875 L 125.3125 195.855469 L 125.3125 145.171875 L 23.941406 195.855469 L 23.941406 364.8125 L 361.851562 364.8125 Z M 91.523438 263.4375 L 57.730469 263.4375 L 57.730469 229.648438 L 91.523438 229.648438 Z M 159.105469 263.4375 L 125.3125 263.4375 L 125.3125 229.648438 L 159.105469 229.648438 Z M 192.894531 229.648438 L 226.6875 229.648438 L 226.6875 263.4375 L 192.894531 263.4375 Z M 91.523438 331.019531 L 57.730469 331.019531 L 57.730469 297.230469 L 91.523438 297.230469 Z M 159.105469 331.019531 L 125.3125 331.019531 L 125.3125 297.230469 L 159.105469 297.230469 Z M 192.894531 297.230469 L 226.6875 297.230469 L 226.6875 331.019531 L 192.894531 331.019531 Z M 260.476562 229.648438 L 294.269531 229.648438 L 294.269531 263.4375 L 260.476562 263.4375 Z M 260.476562 297.230469 L 294.269531 297.230469 L 294.269531 331.019531 L 260.476562 331.019531 Z M 260.476562 297.230469 " fill-opacity="1" fill-rule="nonzero"/></g><g fill="#83c8b1" fill-opacity="1"><g transform="translate(8.965108, 142.858093)"><g><path d="M 66.984375 -107.796875 C 53.972656 -107.796875 43.695312 -103.460938 36.15625 -94.796875 C 28.625 -86.128906 24.859375 -74.265625 24.859375 -59.203125 C 24.859375 -43.710938 28.488281 -31.738281 35.75 -23.28125 C 43.019531 -14.832031 53.375 -10.609375 66.8125 -10.609375 C 75.082031 -10.609375 84.507812 -12.09375 95.09375 -15.0625 L 95.09375 -3 C 86.882812 0.0820312 76.757812 1.625 64.71875 1.625 C 47.269531 1.625 33.804688 -3.664062 24.328125 -14.25 C 14.859375 -24.832031 10.125 -39.875 10.125 -59.375 C 10.125 -71.570312 12.40625 -82.257812 16.96875 -91.4375 C 21.53125 -100.613281 28.117188 -107.6875 36.734375 -112.65625 C 45.347656 -117.625 55.484375 -120.109375 67.140625 -120.109375 C 79.554688 -120.109375 90.410156 -117.84375 99.703125 -113.3125 L 93.875 -101.484375 C 84.90625 -105.691406 75.941406 -107.796875 66.984375 -107.796875 Z M 66.984375 -107.796875 "/></g></g></g></svg>