<svg xmlns="http://www.w3.org/2000/svg" xmlns:xlink="http://www.w3.org/1999/xlink" width="500" zoomAndPan="magnify" viewBox="0 0 375 374.999991" height="500" preserveAspectRatio="xMidYMid meet" version="1.0"><defs><clipPath id="5e4b911444"><path d="M 19.648438 181 L 128 181 L 128 354 L 19.648438 354 Z M 19.648438 181 " clip-rule="nonzero"/></clipPath><clipPath id="0fecaa4022"><path d="M 19.648438 19.648438 L 354 19.648438 L 354 354 L 19.648438 354 Z M 19.648438 19.648438 " clip-rule="nonzero"/></clipPath><clipPath id="6f2a15ed36"><path d="M 30.011719 30.011719 L 175.398438 30.011719 L 175.398438 154.492188 L 30.011719 154.492188 Z M 30.011719 30.011719 " clip-rule="nonzero"/></clipPath><clipPath id="c1d209ac31"><path d="M 76.4375 30.011719 L 128.972656 30.011719 L 128.972656 142.832031 L 76.4375 142.832031 Z M 76.4375 30.011719 " clip-rule="nonzero"/></clipPath><clipPath id="3360844aee"><path d="M 30.011719 20.066406 L 164.261719 20.066406 L 164.261719 154.316406 L 30.011719 154.316406 Z M 30.011719 20.066406 " clip-rule="nonzero"/></clipPath></defs><path fill="#24af80" d="M 100.503906 41.210938 C 91.585938 41.210938 84.332031 48.464844 84.332031 57.378906 C 84.332031 66.296875 91.585938 73.550781 100.503906 73.550781 C 109.417969 73.550781 116.671875 66.296875 116.671875 57.378906 C 116.671875 48.464844 109.417969 41.210938 100.503906 41.210938 Z M 100.503906 62.769531 C 97.527344 62.769531 95.113281 60.351562 95.113281 57.378906 C 95.113281 54.410156 97.527344 51.988281 100.503906 51.988281 C 103.476562 51.988281 105.890625 54.410156 105.890625 57.378906 C 105.890625 60.351562 103.476562 62.769531 100.503906 62.769531 Z M 100.503906 62.769531 " fill-opacity="1" fill-rule="nonzero"/><path fill="#24af80" d="M 84.332031 95.113281 L 95.113281 95.113281 L 95.113281 127.453125 L 84.332031 127.453125 L 84.332031 138.234375 L 116.671875 138.234375 L 116.671875 127.453125 L 105.890625 127.453125 L 105.890625 95.113281 L 116.671875 95.113281 L 116.671875 84.332031 L 84.332031 84.332031 Z M 84.332031 95.113281 " fill-opacity="1" fill-rule="nonzero"/><g clip-path="url(#5e4b911444)"><path fill="#24af80" d="M 105.890625 181.355469 L 41.210938 181.355469 C 29.320312 181.355469 19.648438 191.027344 19.648438 202.917969 L 19.648438 332.28125 C 19.648438 344.171875 29.320312 353.84375 41.210938 353.84375 L 105.890625 353.84375 C 117.785156 353.84375 127.453125 344.171875 127.453125 332.28125 L 127.453125 202.917969 C 127.453125 191.027344 117.785156 181.355469 105.890625 181.355469 Z M 41.210938 192.136719 L 105.890625 192.136719 C 111.839844 192.136719 116.671875 196.972656 116.671875 202.917969 L 30.429688 202.917969 C 30.429688 196.972656 35.265625 192.136719 41.210938 192.136719 Z M 105.890625 343.0625 L 41.210938 343.0625 C 35.265625 343.0625 30.429688 338.226562 30.429688 332.28125 L 30.429688 213.699219 L 116.671875 213.699219 L 116.671875 332.28125 C 116.671875 338.226562 111.839844 343.0625 105.890625 343.0625 Z M 105.890625 343.0625 " fill-opacity="1" fill-rule="nonzero"/></g><path fill="#24af80" d="M 41.210938 267.601562 L 105.890625 267.601562 L 105.890625 224.476562 L 41.210938 224.476562 Z M 51.988281 235.257812 L 95.113281 235.257812 L 95.113281 256.820312 L 51.988281 256.820312 Z M 51.988281 235.257812 " fill-opacity="1" fill-rule="nonzero"/><path fill="#24af80" d="M 89.722656 278.378906 C 80.804688 278.378906 73.550781 285.636719 73.550781 294.550781 C 73.550781 303.464844 80.804688 310.722656 89.722656 310.722656 C 98.636719 310.722656 105.890625 303.464844 105.890625 294.550781 C 105.890625 285.636719 98.636719 278.378906 89.722656 278.378906 Z M 89.722656 299.941406 C 86.746094 299.941406 84.332031 297.527344 84.332031 294.550781 C 84.332031 291.574219 86.746094 289.160156 89.722656 289.160156 C 92.695312 289.160156 95.113281 291.574219 95.113281 294.550781 C 95.113281 297.527344 92.695312 299.941406 89.722656 299.941406 Z M 89.722656 299.941406 " fill-opacity="1" fill-rule="nonzero"/><path fill="#24af80" d="M 41.210938 278.378906 L 62.769531 278.378906 L 62.769531 289.160156 L 41.210938 289.160156 Z M 41.210938 278.378906 " fill-opacity="1" fill-rule="nonzero"/><path fill="#24af80" d="M 41.210938 299.941406 L 62.769531 299.941406 L 62.769531 310.722656 L 41.210938 310.722656 Z M 41.210938 299.941406 " fill-opacity="1" fill-rule="nonzero"/><path fill="#24af80" d="M 41.210938 321.503906 L 105.890625 321.503906 L 105.890625 332.28125 L 41.210938 332.28125 Z M 41.210938 321.503906 " fill-opacity="1" fill-rule="nonzero"/><g clip-path="url(#0fecaa4022)"><path fill="#24af80" d="M 296.78125 84.332031 L 181.355469 84.332031 L 181.355469 35.820312 C 181.355469 26.902344 174.101562 19.648438 165.183594 19.648438 L 35.820312 19.648438 C 26.902344 19.648438 19.648438 26.902344 19.648438 35.820312 L 19.648438 143.625 C 19.648438 152.539062 26.902344 159.796875 35.820312 159.796875 L 118.730469 159.796875 L 126.1875 174.699219 C 128.242188 178.804688 132.371094 181.355469 136.960938 181.355469 C 143.609375 181.355469 149.015625 175.949219 149.015625 169.304688 L 149.015625 159.796875 L 159.796875 159.796875 L 159.796875 353.84375 L 353.84375 353.84375 L 353.84375 141.394531 Z M 299.941406 102.734375 L 335.441406 138.234375 L 299.941406 138.234375 Z M 138.234375 149.015625 L 138.234375 169.304688 C 138.234375 170.488281 136.347656 170.925781 135.824219 169.871094 L 125.394531 149.015625 L 35.820312 149.015625 C 32.84375 149.015625 30.429688 146.59375 30.429688 143.625 L 30.429688 35.820312 C 30.429688 32.847656 32.84375 30.429688 35.820312 30.429688 L 165.183594 30.429688 C 168.160156 30.429688 170.574219 32.847656 170.574219 35.820312 L 170.574219 143.625 C 170.574219 146.59375 168.160156 149.015625 165.183594 149.015625 Z M 170.574219 343.0625 L 170.574219 158.804688 C 176.832031 156.570312 181.355469 150.640625 181.355469 143.625 L 181.355469 95.113281 L 289.160156 95.113281 L 289.160156 149.015625 L 343.0625 149.015625 L 343.0625 343.0625 Z M 170.574219 343.0625 " fill-opacity="1" fill-rule="nonzero"/></g><path fill="#24af80" d="M 192.136719 105.890625 L 278.378906 105.890625 L 278.378906 116.671875 L 192.136719 116.671875 Z M 192.136719 105.890625 " fill-opacity="1" fill-rule="nonzero"/><path fill="#24af80" d="M 192.136719 127.453125 L 278.378906 127.453125 L 278.378906 138.234375 L 192.136719 138.234375 Z M 192.136719 127.453125 " fill-opacity="1" fill-rule="nonzero"/><path fill="#24af80" d="M 246.039062 192.136719 L 181.355469 192.136719 L 181.355469 289.160156 L 278.378906 289.160156 L 278.378906 246.039062 L 332.28125 246.039062 L 332.28125 159.796875 L 246.039062 159.796875 Z M 267.601562 278.378906 L 192.136719 278.378906 L 192.136719 202.917969 L 246.039062 202.917969 L 246.039062 246.039062 L 267.601562 246.039062 Z M 256.820312 170.574219 L 321.503906 170.574219 L 321.503906 235.257812 L 256.820312 235.257812 Z M 256.820312 170.574219 " fill-opacity="1" fill-rule="nonzero"/><path fill="#24af80" d="M 181.355469 299.941406 L 332.28125 299.941406 L 332.28125 310.722656 L 181.355469 310.722656 Z M 181.355469 299.941406 " fill-opacity="1" fill-rule="nonzero"/><path fill="#24af80" d="M 321.503906 321.503906 L 332.28125 321.503906 L 332.28125 332.28125 L 321.503906 332.28125 Z M 321.503906 321.503906 " fill-opacity="1" fill-rule="nonzero"/><path fill="#24af80" d="M 181.355469 321.503906 L 310.722656 321.503906 L 310.722656 332.28125 L 181.355469 332.28125 Z M 181.355469 321.503906 " fill-opacity="1" fill-rule="nonzero"/><g clip-path="url(#6f2a15ed36)"><path fill="#24af80" d="M 30.011719 30.011719 L 175.398438 30.011719 L 175.398438 154.492188 L 30.011719 154.492188 Z M 30.011719 30.011719 " fill-opacity="1" fill-rule="nonzero"/></g><g clip-path="url(#c1d209ac31)"><path fill="#ffffff" d="M 76.4375 30.011719 L 128.972656 30.011719 L 128.972656 142.832031 L 76.4375 142.832031 Z M 76.4375 30.011719 " fill-opacity="1" fill-rule="nonzero"/></g><g clip-path="url(#3360844aee)"><path fill="#24af80" d="M 164.414062 87.269531 C 164.378906 124.253906 134.527344 154.480469 97.179688 154.460938 C 60.082031 154.4375 30.023438 124.492188 30.035156 87.234375 C 30.046875 49.933594 60.230469 20.089844 97.234375 20.078125 C 134.320312 20.066406 164.414062 50.183594 164.414062 87.269531 Z M 108.832031 101.984375 C 108.832031 93.703125 108.820312 85.433594 108.84375 77.15625 C 108.855469 74.023438 107.738281 71.367188 105.425781 69.308594 C 101.78125 66.050781 97.542969 65.367188 93 66.972656 C 88.660156 68.511719 85.753906 72.679688 85.777344 77.394531 C 85.867188 93.886719 85.824219 110.378906 85.800781 126.871094 C 85.800781 136.191406 93.785156 137.761719 97.601562 137.75 C 103.339844 137.726562 108.980469 133.101562 108.867188 126.460938 C 108.71875 118.308594 108.832031 110.140625 108.832031 101.984375 Z M 109.617188 49.066406 C 109.605469 42.1875 104.117188 36.707031 97.226562 36.707031 C 90.324219 36.707031 84.808594 42.234375 84.820312 49.136719 C 84.832031 55.957031 90.402344 61.515625 97.234375 61.515625 C 104.117188 61.515625 109.617188 55.980469 109.617188 49.066406 Z M 109.617188 49.066406 " fill-opacity="1" fill-rule="nonzero"/></g></svg>