<svg xmlns="http://www.w3.org/2000/svg" xmlns:xlink="http://www.w3.org/1999/xlink" width="500" zoomAndPan="magnify" viewBox="0 0 375 374.999991" height="500" preserveAspectRatio="xMidYMid meet" version="1.0"><defs><clipPath id="38dccc5f5e"><path d="M 141 19.648438 L 234 19.648438 L 234 113 L 141 113 Z M 141 19.648438 " clip-rule="nonzero"/></clipPath><clipPath id="f5899dbaa7"><path d="M 19.648438 332 L 355.648438 332 L 355.648438 355.648438 L 19.648438 355.648438 Z M 19.648438 332 " clip-rule="nonzero"/></clipPath></defs><path fill="#24af80" d="M 141.195312 228.011719 L 141.195312 320.617188 L 233.800781 320.617188 L 233.800781 228.011719 L 199.070312 228.011719 L 199.070312 256.949219 L 175.921875 256.949219 L 175.921875 228.011719 Z M 199.070312 297.464844 L 222.222656 297.464844 L 222.222656 309.042969 L 199.070312 309.042969 Z M 199.070312 297.464844 " fill-opacity="1" fill-rule="nonzero"/><path fill="#24af80" d="M 228.011719 123.828125 L 193.285156 123.828125 L 193.285156 216.433594 L 285.890625 216.433594 L 285.890625 123.828125 L 251.164062 123.828125 L 251.164062 152.769531 L 228.011719 152.769531 Z M 251.164062 193.285156 L 274.3125 193.285156 L 274.3125 204.859375 L 251.164062 204.859375 Z M 251.164062 193.285156 " fill-opacity="1" fill-rule="nonzero"/><path fill="#24af80" d="M 280.101562 228.011719 L 245.375 228.011719 L 245.375 320.617188 L 337.980469 320.617188 L 337.980469 228.011719 L 303.253906 228.011719 L 303.253906 256.949219 L 280.101562 256.949219 Z M 303.253906 297.464844 L 326.40625 297.464844 L 326.40625 309.042969 L 303.253906 309.042969 Z M 303.253906 297.464844 " fill-opacity="1" fill-rule="nonzero"/><g clip-path="url(#38dccc5f5e)"><path fill="#24af80" d="M 233.800781 19.648438 L 199.070312 19.648438 L 199.070312 48.585938 L 175.921875 48.585938 L 175.921875 19.648438 L 141.195312 19.648438 L 141.195312 112.253906 L 233.800781 112.253906 Z M 222.222656 100.679688 L 199.070312 100.679688 L 199.070312 89.101562 L 222.222656 89.101562 Z M 222.222656 100.679688 " fill-opacity="1" fill-rule="nonzero"/></g><g clip-path="url(#f5899dbaa7)"><path fill="#24af80" d="M 19.648438 332.191406 L 19.648438 355.34375 L 42.800781 355.34375 L 42.800781 349.554688 C 42.800781 346.355469 45.394531 343.769531 48.585938 343.769531 L 326.40625 343.769531 C 329.597656 343.769531 332.191406 346.355469 332.191406 349.554688 L 332.191406 355.34375 L 355.34375 355.34375 L 355.34375 332.191406 Z M 19.648438 332.191406 " fill-opacity="1" fill-rule="nonzero"/></g><path fill="#24af80" d="M 181.707031 123.828125 L 146.980469 123.828125 L 146.980469 152.769531 L 123.828125 152.769531 L 123.828125 123.828125 L 89.101562 123.828125 L 89.101562 216.433594 L 181.707031 216.433594 Z M 170.132812 204.859375 L 146.980469 204.859375 L 146.980469 193.285156 L 170.132812 193.285156 Z M 170.132812 204.859375 " fill-opacity="1" fill-rule="nonzero"/><path fill="#24af80" d="M 129.617188 228.011719 L 94.890625 228.011719 L 94.890625 256.949219 L 71.738281 256.949219 L 71.738281 228.011719 L 37.011719 228.011719 L 37.011719 320.617188 L 129.617188 320.617188 Z M 118.042969 309.042969 L 94.890625 309.042969 L 94.890625 297.464844 L 118.042969 297.464844 Z M 118.042969 309.042969 " fill-opacity="1" fill-rule="nonzero"/></svg>