<svg xmlns="http://www.w3.org/2000/svg" xmlns:xlink="http://www.w3.org/1999/xlink" width="500" zoomAndPan="magnify" viewBox="0 0 375 374.999991" height="500" preserveAspectRatio="xMidYMid meet" version="1.0"><defs><clipPath id="c6d115dff9"><path d="M 14.746094 202 L 360.242188 202 L 360.242188 358.410156 L 14.746094 358.410156 Z M 14.746094 202 " clip-rule="nonzero"/></clipPath><clipPath id="2e2c032542"><path d="M 152 16.421875 L 250 16.421875 L 250 68 L 152 68 Z M 152 16.421875 " clip-rule="nonzero"/></clipPath></defs><path fill="#24af80" d="M 87.1875 308.257812 C 90.257812 308.257812 92.761719 310.738281 92.761719 313.832031 C 92.761719 316.898438 90.257812 319.402344 87.1875 319.402344 C 84.121094 319.402344 81.617188 316.898438 81.617188 313.832031 C 81.617188 310.738281 84.121094 308.257812 87.1875 308.257812 Z M 87.1875 330.546875 C 96.417969 330.546875 103.90625 323.039062 103.90625 313.832031 C 103.90625 304.601562 96.417969 297.113281 87.1875 297.113281 C 77.960938 297.113281 70.472656 304.601562 70.472656 313.832031 C 70.472656 323.039062 77.960938 330.546875 87.1875 330.546875 " fill-opacity="1" fill-rule="nonzero"/><path fill="#24af80" d="M 187.496094 308.257812 C 190.5625 308.257812 193.066406 310.738281 193.066406 313.832031 C 193.066406 316.898438 190.5625 319.402344 187.496094 319.402344 C 184.425781 319.402344 181.921875 316.898438 181.921875 313.832031 C 181.921875 310.738281 184.425781 308.257812 187.496094 308.257812 Z M 187.496094 330.546875 C 196.722656 330.546875 204.210938 323.039062 204.210938 313.832031 C 204.210938 304.601562 196.722656 297.113281 187.496094 297.113281 C 178.265625 297.113281 170.777344 304.601562 170.777344 313.832031 C 170.777344 323.039062 178.265625 330.546875 187.496094 330.546875 " fill-opacity="1" fill-rule="nonzero"/><path fill="#24af80" d="M 287.800781 319.402344 C 284.730469 319.402344 282.226562 316.898438 282.226562 313.832031 C 282.226562 310.738281 284.730469 308.257812 287.800781 308.257812 C 290.867188 308.257812 293.371094 310.738281 293.371094 313.832031 C 293.371094 316.898438 290.867188 319.402344 287.800781 319.402344 Z M 287.800781 297.113281 C 278.570312 297.113281 271.082031 304.601562 271.082031 313.832031 C 271.082031 323.039062 278.570312 330.546875 287.800781 330.546875 C 297.027344 330.546875 304.515625 323.039062 304.515625 313.832031 C 304.515625 304.601562 297.027344 297.113281 287.800781 297.113281 " fill-opacity="1" fill-rule="nonzero"/><g clip-path="url(#c6d115dff9)"><path fill="#24af80" d="M 349.097656 319.402344 C 349.097656 334.75 336.601562 347.265625 321.234375 347.265625 L 307.78125 347.265625 C 319.167969 340.429688 326.808594 328.023438 326.808594 313.832031 C 326.808594 299.617188 319.167969 287.210938 307.78125 280.394531 L 321.234375 280.394531 C 336.601562 280.394531 349.097656 292.890625 349.097656 308.257812 Z M 25.890625 319.402344 L 25.890625 308.257812 C 25.890625 292.890625 38.386719 280.394531 53.753906 280.394531 L 67.207031 280.394531 C 55.84375 287.210938 48.179688 299.617188 48.179688 313.832031 C 48.179688 328.023438 55.84375 340.429688 67.207031 347.265625 L 53.753906 347.265625 C 38.386719 347.265625 25.890625 334.75 25.890625 319.402344 Z M 70.472656 213.527344 L 70.472656 235.816406 L 103.90625 235.816406 L 103.90625 213.527344 L 115.050781 213.527344 L 115.050781 269.25 L 59.328125 269.25 L 59.328125 213.527344 Z M 81.617188 213.527344 L 92.761719 213.527344 L 92.761719 224.671875 L 81.617188 224.671875 Z M 159.632812 213.527344 L 170.777344 213.527344 L 170.777344 235.816406 L 204.210938 235.816406 L 204.210938 213.527344 L 215.355469 213.527344 L 215.355469 269.25 L 159.632812 269.25 Z M 181.921875 213.527344 L 193.066406 213.527344 L 193.066406 224.671875 L 181.921875 224.671875 Z M 215.355469 313.832031 C 215.355469 329.175781 202.863281 341.695312 187.496094 341.695312 C 172.125 341.695312 159.632812 329.175781 159.632812 313.832031 C 159.632812 298.464844 172.125 285.96875 187.496094 285.96875 C 202.863281 285.96875 215.355469 298.464844 215.355469 313.832031 Z M 126.195312 313.832031 C 126.195312 299.617188 118.554688 287.210938 107.171875 280.394531 L 167.511719 280.394531 C 156.128906 287.210938 148.488281 299.617188 148.488281 313.832031 C 148.488281 328.023438 156.128906 340.429688 167.511719 347.265625 L 107.171875 347.265625 C 118.554688 340.429688 126.195312 328.023438 126.195312 313.832031 Z M 87.1875 285.96875 C 102.558594 285.96875 115.050781 298.464844 115.050781 313.832031 C 115.050781 329.175781 102.558594 341.695312 87.1875 341.695312 C 71.820312 341.695312 59.328125 329.175781 59.328125 313.832031 C 59.328125 298.464844 71.820312 285.96875 87.1875 285.96875 Z M 248.792969 313.832031 C 248.792969 328.023438 256.433594 340.429688 267.816406 347.265625 L 207.476562 347.265625 C 218.863281 340.429688 226.5 328.023438 226.5 313.832031 C 226.5 299.617188 218.863281 287.210938 207.476562 280.394531 L 267.816406 280.394531 C 256.433594 287.210938 248.792969 299.617188 248.792969 313.832031 Z M 287.800781 341.695312 C 272.429688 341.695312 259.9375 329.175781 259.9375 313.832031 C 259.9375 298.464844 272.429688 285.96875 287.800781 285.96875 C 303.167969 285.96875 315.664062 298.464844 315.664062 313.832031 C 315.664062 329.175781 303.167969 341.695312 287.800781 341.695312 Z M 259.9375 213.527344 L 271.082031 213.527344 L 271.082031 235.816406 L 304.515625 235.816406 L 304.515625 213.527344 L 315.664062 213.527344 L 315.664062 269.25 L 259.9375 269.25 Z M 282.226562 213.527344 L 293.371094 213.527344 L 293.371094 224.671875 L 282.226562 224.671875 Z M 326.808594 269.6875 L 326.808594 202.378906 L 248.792969 202.378906 L 248.792969 269.25 L 226.5 269.25 L 226.5 202.378906 L 148.488281 202.378906 L 148.488281 269.25 L 126.195312 269.25 L 126.195312 202.378906 L 48.179688 202.378906 L 48.179688 269.6875 C 29.308594 272.40625 14.746094 288.644531 14.746094 308.257812 L 14.746094 319.402344 C 14.746094 340.910156 32.246094 358.410156 53.753906 358.410156 L 321.234375 358.410156 C 342.742188 358.410156 360.242188 340.910156 360.242188 319.402344 L 360.242188 308.257812 C 360.242188 288.644531 345.679688 272.40625 326.808594 269.6875 " fill-opacity="1" fill-rule="nonzero"/></g><path fill="#24af80" d="M 137.339844 122.796875 L 143.828125 120.644531 L 144.632812 117.792969 C 145.589844 114.417969 146.917969 111.175781 148.59375 108.191406 L 150.03125 105.601562 L 146.984375 99.507812 L 157.0625 89.429688 L 163.179688 92.476562 L 165.75 91.039062 C 168.730469 89.363281 171.972656 88.035156 175.371094 87.078125 L 178.199219 86.273438 L 180.355469 79.785156 L 194.632812 79.785156 L 196.789062 86.273438 L 199.617188 87.078125 C 203.015625 88.035156 206.257812 89.363281 209.238281 91.039062 L 211.808594 92.476562 L 217.925781 89.429688 L 228.003906 99.507812 L 224.957031 105.601562 L 226.394531 108.191406 C 228.070312 111.175781 229.398438 114.417969 230.355469 117.792969 L 231.160156 120.644531 L 237.648438 122.796875 L 237.648438 137.054688 L 231.160156 139.234375 L 230.355469 142.0625 C 229.398438 145.457031 228.070312 148.679688 226.394531 151.683594 L 224.957031 154.253906 L 228.003906 160.347656 L 217.925781 170.425781 L 211.808594 167.378906 L 209.238281 168.835938 C 206.257812 170.511719 203.015625 171.839844 199.617188 172.796875 L 196.789062 173.582031 L 194.632812 180.089844 L 180.355469 180.089844 L 178.199219 173.582031 L 175.371094 172.796875 C 171.972656 171.839844 168.730469 170.511719 165.75 168.835938 L 163.179688 167.378906 L 157.0625 170.425781 L 146.984375 160.347656 L 150.03125 154.253906 L 148.59375 151.683594 C 146.917969 148.679688 145.589844 145.457031 144.632812 142.0625 L 143.828125 139.234375 L 137.339844 137.054688 Z M 137.472656 154.449219 L 133.421875 162.546875 L 154.863281 183.988281 L 162.960938 179.960938 C 165.050781 180.984375 167.230469 181.875 169.472656 182.617188 L 172.34375 191.234375 L 202.644531 191.234375 L 205.519531 182.617188 C 207.761719 181.875 209.9375 180.984375 212.027344 179.960938 L 220.125 183.988281 L 241.566406 162.546875 L 237.515625 154.449219 C 238.539062 152.359375 239.433594 150.183594 240.195312 147.960938 L 248.792969 145.089844 L 248.792969 114.765625 L 240.195312 111.894531 C 239.433594 109.671875 238.539062 107.496094 237.515625 105.40625 L 241.566406 97.308594 L 220.125 75.867188 L 212.027344 79.917969 C 209.9375 78.894531 207.761719 78 205.519531 77.238281 L 202.644531 68.640625 L 172.34375 68.640625 L 169.472656 77.238281 C 167.230469 78 165.050781 78.894531 162.960938 79.917969 L 154.863281 75.867188 L 133.421875 97.308594 L 137.472656 105.40625 C 136.449219 107.496094 135.558594 109.671875 134.792969 111.894531 L 126.195312 114.765625 L 126.195312 145.089844 L 134.792969 147.960938 C 135.558594 150.183594 136.449219 152.359375 137.472656 154.449219 " fill-opacity="1" fill-rule="nonzero"/><path fill="#24af80" d="M 187.496094 107.648438 C 199.792969 107.648438 209.785156 117.640625 209.785156 129.9375 C 209.785156 142.214844 199.792969 152.226562 187.496094 152.226562 C 175.195312 152.226562 165.203125 142.214844 165.203125 129.9375 C 165.203125 117.640625 175.195312 107.648438 187.496094 107.648438 Z M 187.496094 163.375 C 205.929688 163.375 220.929688 148.375 220.929688 129.9375 C 220.929688 111.5 205.929688 96.503906 187.496094 96.503906 C 169.058594 96.503906 154.058594 111.5 154.058594 129.9375 C 154.058594 148.375 169.058594 163.375 187.496094 163.375 " fill-opacity="1" fill-rule="nonzero"/><path fill="#24af80" d="M 283.640625 83.117188 C 281.878906 79.109375 279.898438 75.171875 277.722656 71.40625 L 268.078125 77 C 270.039062 80.394531 271.84375 83.964844 273.410156 87.578125 L 283.640625 83.117188 " fill-opacity="1" fill-rule="nonzero"/><path fill="#24af80" d="M 269.1875 192.410156 L 301.011719 179.675781 L 296.875 169.335938 L 282.835938 174.953125 C 289.800781 159.585938 293.371094 144.480469 293.371094 129.9375 C 293.371094 117.945312 291.566406 106.144531 288.015625 94.828125 L 277.371094 98.15625 C 280.59375 108.386719 282.226562 119.074219 282.226562 129.9375 C 282.226562 144.433594 278.222656 159.671875 270.296875 175.34375 L 258.828125 160.019531 L 249.902344 166.703125 L 269.1875 192.410156 " fill-opacity="1" fill-rule="nonzero"/><g clip-path="url(#2e2c032542)"><path fill="#24af80" d="M 187.496094 35.207031 C 201.992188 35.207031 217.25 39.210938 232.902344 47.113281 L 217.597656 58.605469 L 224.261719 67.507812 L 249.988281 48.246094 L 237.253906 16.421875 L 226.894531 20.554688 L 232.53125 34.597656 C 217.140625 27.628906 202.058594 24.058594 187.496094 24.058594 C 175.523438 24.058594 163.703125 25.867188 152.382812 29.414062 L 155.734375 40.039062 C 165.964844 36.839844 176.652344 35.207031 187.496094 35.207031 " fill-opacity="1" fill-rule="nonzero"/></g><path fill="#24af80" d="M 145.15625 44 L 140.671875 33.789062 C 136.667969 35.554688 132.726562 37.535156 128.984375 39.710938 L 134.554688 49.355469 C 137.953125 47.394531 141.519531 45.589844 145.15625 44 " fill-opacity="1" fill-rule="nonzero"/><path fill="#24af80" d="M 97.265625 188.449219 L 106.910156 182.855469 C 104.953125 179.460938 103.144531 175.910156 101.578125 172.277344 L 91.347656 176.738281 C 93.109375 180.742188 95.089844 184.683594 97.265625 188.449219 " fill-opacity="1" fill-rule="nonzero"/><path fill="#24af80" d="M 92.152344 84.902344 C 85.1875 100.269531 81.617188 115.375 81.617188 129.9375 C 81.617188 141.910156 83.421875 153.730469 86.972656 165.027344 L 97.617188 161.695312 C 94.394531 151.464844 92.761719 140.777344 92.761719 129.9375 C 92.761719 115.417969 96.765625 100.183594 104.691406 84.53125 L 116.160156 99.832031 L 125.085938 93.152344 L 105.800781 67.441406 L 73.976562 80.175781 L 78.113281 90.515625 L 92.152344 84.902344 " fill-opacity="1" fill-rule="nonzero"/></svg>