<svg xmlns="http://www.w3.org/2000/svg" xmlns:xlink="http://www.w3.org/1999/xlink" width="500" zoomAndPan="magnify" viewBox="0 0 375 374.999991" height="500" preserveAspectRatio="xMidYMid meet" version="1.0"><defs><clipPath id="6f539cb43a"><path d="M 7 123 L 369.761719 123 L 369.761719 251 L 7 251 Z M 7 123 " clip-rule="nonzero"/></clipPath><clipPath id="68b36e71e1"><path d="M 124 94.105469 L 369.761719 94.105469 L 369.761719 212 L 124 212 Z M 124 94.105469 " clip-rule="nonzero"/></clipPath></defs><g clip-path="url(#6f539cb43a)"><path fill="#24af80" d="M 109.085938 123.175781 L 109.085938 219.5625 L 261.242188 219.6875 C 252.3125 226.980469 246.738281 237.035156 246.808594 250.234375 L 95.765625 250.144531 C 94.316406 198.945312 21.675781 199.121094 20.101562 249.847656 C 9.191406 249.765625 7.675781 247.289062 7.570312 237.238281 L 7.570312 198.804688 C 7.433594 181.628906 5.289062 192.964844 18.003906 160.394531 C 31.085938 125.675781 27.480469 128.882812 39.3125 127.988281 L 109.082031 123.179688 Z M 78.863281 180.003906 L 79.464844 139.054688 L 40.625 141.464844 C 33.542969 141.9375 33.484375 141.984375 30.988281 150.195312 L 21.050781 176.691406 C 17.714844 184.820312 18.246094 187.214844 27.375 186.027344 Z M 369.523438 219.753906 L 369.597656 241.410156 L 344.515625 250.289062 L 322.492188 250.273438 C 322.582031 237.71875 317.367188 227.15625 308.113281 219.738281 L 369.527344 219.753906 Z M 369.523438 219.753906 " fill-opacity="1" fill-rule="evenodd"/></g><g clip-path="url(#68b36e71e1)"><path fill="#24af80" d="M 124.632812 94.195312 L 369.726562 94.195312 L 369.726562 211.320312 L 124.632812 211.320312 Z M 124.632812 94.195312 " fill-opacity="1" fill-rule="nonzero"/></g><path fill="#24af80" d="M 87.816406 249.421875 C 87.816406 248.441406 87.769531 247.464844 87.675781 246.492188 C 87.578125 245.515625 87.433594 244.550781 87.242188 243.589844 C 87.050781 242.628906 86.816406 241.679688 86.53125 240.742188 C 86.246094 239.804688 85.917969 238.886719 85.542969 237.980469 C 85.167969 237.078125 84.75 236.191406 84.289062 235.328125 C 83.828125 234.464844 83.324219 233.628906 82.78125 232.8125 C 82.234375 232 81.652344 231.214844 81.03125 230.457031 C 80.410156 229.699219 79.753906 228.976562 79.0625 228.28125 C 78.371094 227.589844 77.644531 226.933594 76.890625 226.3125 C 76.132812 225.691406 75.347656 225.109375 74.53125 224.566406 C 73.71875 224.023438 72.878906 223.519531 72.015625 223.058594 C 71.152344 222.597656 70.269531 222.179688 69.363281 221.804688 C 68.460938 221.429688 67.539062 221.097656 66.601562 220.816406 C 65.664062 220.53125 64.71875 220.292969 63.757812 220.101562 C 62.796875 219.910156 61.828125 219.765625 60.855469 219.671875 C 59.878906 219.574219 58.902344 219.527344 57.925781 219.527344 C 56.945312 219.527344 55.96875 219.574219 54.996094 219.671875 C 54.019531 219.765625 53.054688 219.910156 52.09375 220.101562 C 51.132812 220.292969 50.183594 220.53125 49.246094 220.816406 C 48.3125 221.097656 47.390625 221.429688 46.484375 221.804688 C 45.582031 222.179688 44.695312 222.597656 43.832031 223.058594 C 42.96875 223.519531 42.132812 224.023438 41.316406 224.566406 C 40.503906 225.109375 39.71875 225.691406 38.960938 226.3125 C 38.203125 226.933594 37.480469 227.589844 36.789062 228.28125 C 36.09375 228.976562 35.4375 229.699219 34.816406 230.457031 C 34.195312 231.214844 33.613281 232 33.070312 232.8125 C 32.527344 233.628906 32.023438 234.464844 31.5625 235.328125 C 31.101562 236.191406 30.683594 237.078125 30.308594 237.980469 C 29.933594 238.886719 29.601562 239.804688 29.320312 240.742188 C 29.035156 241.679688 28.796875 242.628906 28.605469 243.589844 C 28.414062 244.550781 28.273438 245.515625 28.175781 246.492188 C 28.078125 247.464844 28.03125 248.441406 28.03125 249.421875 C 28.03125 250.398438 28.078125 251.375 28.175781 252.351562 C 28.273438 253.324219 28.414062 254.292969 28.605469 255.253906 C 28.796875 256.210938 29.035156 257.160156 29.320312 258.097656 C 29.601562 259.035156 29.933594 259.957031 30.308594 260.859375 C 30.683594 261.765625 31.101562 262.648438 31.5625 263.511719 C 32.023438 264.375 32.527344 265.214844 33.070312 266.027344 C 33.613281 266.84375 34.195312 267.628906 34.816406 268.382812 C 35.4375 269.140625 36.09375 269.867188 36.789062 270.558594 C 37.480469 271.25 38.203125 271.90625 38.960938 272.527344 C 39.71875 273.148438 40.503906 273.730469 41.316406 274.277344 C 42.132812 274.820312 42.96875 275.324219 43.832031 275.785156 C 44.695312 276.246094 45.582031 276.664062 46.484375 277.039062 C 47.390625 277.414062 48.3125 277.742188 49.246094 278.027344 C 50.183594 278.3125 51.132812 278.546875 52.09375 278.738281 C 53.054688 278.929688 54.019531 279.074219 54.996094 279.167969 C 55.96875 279.265625 56.945312 279.3125 57.925781 279.3125 C 58.902344 279.3125 59.878906 279.265625 60.855469 279.167969 C 61.828125 279.074219 62.796875 278.929688 63.757812 278.738281 C 64.71875 278.546875 65.664062 278.3125 66.601562 278.027344 C 67.539062 277.742188 68.460938 277.414062 69.363281 277.039062 C 70.269531 276.664062 71.152344 276.246094 72.015625 275.785156 C 72.878906 275.324219 73.71875 274.820312 74.53125 274.277344 C 75.347656 273.730469 76.132812 273.148438 76.890625 272.527344 C 77.644531 271.90625 78.371094 271.25 79.0625 270.558594 C 79.753906 269.867188 80.410156 269.140625 81.03125 268.382812 C 81.652344 267.628906 82.234375 266.84375 82.78125 266.027344 C 83.324219 265.214844 83.828125 264.375 84.289062 263.511719 C 84.75 262.648438 85.167969 261.765625 85.542969 260.859375 C 85.917969 259.957031 86.246094 259.035156 86.53125 258.097656 C 86.816406 257.160156 87.050781 256.210938 87.242188 255.253906 C 87.433594 254.292969 87.578125 253.324219 87.675781 252.351562 C 87.769531 251.375 87.816406 250.398438 87.816406 249.421875 " fill-opacity="1" fill-rule="nonzero"/><path fill="#24af80" d="M 314.539062 249.421875 C 314.539062 248.441406 314.492188 247.464844 314.394531 246.492188 C 314.300781 245.515625 314.15625 244.550781 313.964844 243.589844 C 313.773438 242.628906 313.535156 241.679688 313.253906 240.742188 C 312.96875 239.804688 312.636719 238.886719 312.265625 237.980469 C 311.890625 237.078125 311.472656 236.191406 311.007812 235.328125 C 310.546875 234.464844 310.046875 233.628906 309.5 232.8125 C 308.957031 232 308.375 231.214844 307.753906 230.457031 C 307.132812 229.699219 306.476562 228.976562 305.785156 228.28125 C 305.089844 227.589844 304.367188 226.933594 303.609375 226.3125 C 302.851562 225.691406 302.066406 225.109375 301.253906 224.566406 C 300.441406 224.023438 299.601562 223.519531 298.738281 223.058594 C 297.875 222.597656 296.992188 222.179688 296.085938 221.804688 C 295.179688 221.429688 294.261719 221.097656 293.324219 220.816406 C 292.386719 220.53125 291.4375 220.292969 290.476562 220.101562 C 289.519531 219.910156 288.550781 219.765625 287.578125 219.671875 C 286.601562 219.574219 285.625 219.527344 284.644531 219.527344 C 283.667969 219.527344 282.691406 219.574219 281.714844 219.671875 C 280.742188 219.765625 279.773438 219.910156 278.816406 220.101562 C 277.855469 220.292969 276.90625 220.53125 275.96875 220.816406 C 275.03125 221.097656 274.109375 221.429688 273.207031 221.804688 C 272.300781 222.179688 271.417969 222.597656 270.554688 223.058594 C 269.691406 223.519531 268.851562 224.023438 268.039062 224.566406 C 267.226562 225.109375 266.4375 225.691406 265.683594 226.3125 C 264.925781 226.933594 264.199219 227.589844 263.507812 228.28125 C 262.816406 228.976562 262.160156 229.699219 261.539062 230.457031 C 260.917969 231.214844 260.335938 232 259.792969 232.8125 C 259.246094 233.628906 258.746094 234.464844 258.28125 235.328125 C 257.820312 236.191406 257.402344 237.078125 257.027344 237.980469 C 256.652344 238.886719 256.324219 239.804688 256.039062 240.742188 C 255.757812 241.679688 255.519531 242.628906 255.328125 243.589844 C 255.136719 244.550781 254.992188 245.515625 254.898438 246.492188 C 254.800781 247.464844 254.753906 248.441406 254.753906 249.421875 C 254.753906 250.398438 254.800781 251.375 254.898438 252.351562 C 254.992188 253.324219 255.136719 254.292969 255.328125 255.253906 C 255.519531 256.210938 255.757812 257.160156 256.039062 258.097656 C 256.324219 259.035156 256.652344 259.957031 257.027344 260.859375 C 257.402344 261.765625 257.820312 262.648438 258.28125 263.511719 C 258.746094 264.375 259.246094 265.214844 259.792969 266.027344 C 260.335938 266.84375 260.917969 267.628906 261.539062 268.382812 C 262.160156 269.140625 262.816406 269.867188 263.507812 270.558594 C 264.199219 271.25 264.925781 271.90625 265.683594 272.527344 C 266.4375 273.148438 267.226562 273.730469 268.039062 274.277344 C 268.851562 274.820312 269.691406 275.324219 270.554688 275.785156 C 271.417969 276.246094 272.300781 276.664062 273.207031 277.039062 C 274.109375 277.414062 275.03125 277.742188 275.96875 278.027344 C 276.90625 278.3125 277.855469 278.546875 278.816406 278.738281 C 279.773438 278.929688 280.742188 279.074219 281.714844 279.167969 C 282.691406 279.265625 283.667969 279.3125 284.644531 279.3125 C 285.625 279.3125 286.601562 279.265625 287.578125 279.167969 C 288.550781 279.074219 289.519531 278.929688 290.476562 278.738281 C 291.4375 278.546875 292.386719 278.3125 293.324219 278.027344 C 294.261719 277.742188 295.179688 277.414062 296.085938 277.039062 C 296.992188 276.664062 297.875 276.246094 298.738281 275.785156 C 299.601562 275.324219 300.441406 274.820312 301.253906 274.277344 C 302.066406 273.730469 302.855469 273.148438 303.609375 272.527344 C 304.367188 271.90625 305.089844 271.25 305.785156 270.558594 C 306.476562 269.867188 307.132812 269.140625 307.753906 268.382812 C 308.375 267.628906 308.957031 266.84375 309.5 266.027344 C 310.046875 265.214844 310.546875 264.375 311.007812 263.511719 C 311.472656 262.648438 311.890625 261.765625 312.265625 260.859375 C 312.636719 259.957031 312.96875 259.035156 313.253906 258.097656 C 313.535156 257.160156 313.773438 256.210938 313.964844 255.253906 C 314.15625 254.292969 314.300781 253.324219 314.394531 252.351562 C 314.492188 251.375 314.539062 250.398438 314.539062 249.421875 " fill-opacity="1" fill-rule="nonzero"/></svg>