<svg xmlns="http://www.w3.org/2000/svg" xmlns:xlink="http://www.w3.org/1999/xlink" width="500" zoomAndPan="magnify" viewBox="0 0 375 112.499997" height="150" preserveAspectRatio="xMidYMid meet" version="1.0"><defs><g/></defs><g fill="#ffffff" fill-opacity="1"><g transform="translate(36.435351, 68.122436)"><g><path d="M 22.25 -41.5 C 24.550781 -41.5 26.828125 -41.238281 29.078125 -40.71875 C 31.335938 -40.195312 33.015625 -39.671875 34.109375 -39.140625 L 35.765625 -38.359375 L 31.203125 -29.25 C 28.054688 -30.925781 25.070312 -31.765625 22.25 -31.765625 C 20.675781 -31.765625 19.5625 -31.59375 18.90625 -31.25 C 18.25 -30.90625 17.921875 -30.265625 17.921875 -29.328125 C 17.921875 -29.109375 17.945312 -28.894531 18 -28.6875 C 18.050781 -28.476562 18.15625 -28.28125 18.3125 -28.09375 C 18.46875 -27.914062 18.609375 -27.757812 18.734375 -27.625 C 18.867188 -27.5 19.09375 -27.359375 19.40625 -27.203125 C 19.726562 -27.046875 19.976562 -26.925781 20.15625 -26.84375 C 20.34375 -26.769531 20.644531 -26.648438 21.0625 -26.484375 C 21.488281 -26.328125 21.804688 -26.207031 22.015625 -26.125 C 22.222656 -26.050781 22.570312 -25.9375 23.0625 -25.78125 C 23.5625 -25.625 23.945312 -25.519531 24.21875 -25.46875 C 25.84375 -25 27.253906 -24.472656 28.453125 -23.890625 C 29.660156 -23.316406 30.929688 -22.53125 32.265625 -21.53125 C 33.609375 -20.539062 34.644531 -19.285156 35.375 -17.765625 C 36.101562 -16.242188 36.46875 -14.515625 36.46875 -12.578125 C 36.46875 -3.410156 30.101562 1.171875 17.375 1.171875 C 14.488281 1.171875 11.75 0.726562 9.15625 -0.15625 C 6.5625 -1.050781 4.6875 -1.941406 3.53125 -2.828125 L 1.8125 -4.25 L 7.46875 -13.75 C 7.882812 -13.382812 8.429688 -12.953125 9.109375 -12.453125 C 9.796875 -11.960938 11.03125 -11.285156 12.8125 -10.421875 C 14.59375 -9.554688 16.140625 -9.125 17.453125 -9.125 C 20.335938 -9.125 21.78125 -10.09375 21.78125 -12.03125 C 21.78125 -12.914062 21.410156 -13.609375 20.671875 -14.109375 C 19.941406 -14.609375 18.695312 -15.171875 16.9375 -15.796875 C 15.1875 -16.429688 13.8125 -17.007812 12.8125 -17.53125 C 10.300781 -18.84375 8.3125 -20.320312 6.84375 -21.96875 C 5.375 -23.625 4.640625 -25.8125 4.640625 -28.53125 C 4.640625 -32.625 6.222656 -35.804688 9.390625 -38.078125 C 12.566406 -40.359375 16.851562 -41.5 22.25 -41.5 Z M 22.25 -41.5 "/></g></g></g><g fill="#ffffff" fill-opacity="1"><g transform="translate(67.712965, 68.122436)"><g><path d="M 7.078125 -40.328125 L 7.078125 -55.34375 L 20.984375 -55.34375 L 20.984375 -40.328125 L 29.484375 -40.328125 L 29.484375 -29.71875 L 20.984375 -29.71875 L 20.984375 -16.90625 C 20.984375 -13.175781 22.035156 -11.3125 24.140625 -11.3125 C 24.660156 -11.3125 25.207031 -11.414062 25.78125 -11.625 C 26.363281 -11.84375 26.8125 -12.054688 27.125 -12.265625 L 27.59375 -12.578125 L 31.046875 -1.34375 C 28.054688 0.332031 24.648438 1.171875 20.828125 1.171875 C 18.210938 1.171875 15.957031 0.710938 14.0625 -0.203125 C 12.175781 -1.117188 10.75 -2.347656 9.78125 -3.890625 C 8.8125 -5.429688 8.117188 -7.050781 7.703125 -8.75 C 7.285156 -10.457031 7.078125 -12.285156 7.078125 -14.234375 L 7.078125 -29.71875 L 1.25 -29.71875 L 1.25 -40.328125 Z M 7.078125 -40.328125 "/></g></g></g><g fill="#ffffff" fill-opacity="1"><g transform="translate(91.367106, 68.122436)"><g><path d="M 4.71875 0 L 4.71875 -40.328125 L 18.625 -40.328125 L 18.625 -34.515625 L 18.78125 -34.515625 C 18.882812 -34.722656 19.054688 -34.984375 19.296875 -35.296875 C 19.535156 -35.609375 20.046875 -36.15625 20.828125 -36.9375 C 21.617188 -37.726562 22.457031 -38.4375 23.34375 -39.0625 C 24.238281 -39.695312 25.390625 -40.257812 26.796875 -40.75 C 28.210938 -41.25 29.65625 -41.5 31.125 -41.5 C 32.644531 -41.5 34.140625 -41.289062 35.609375 -40.875 C 37.078125 -40.457031 38.148438 -40.039062 38.828125 -39.625 L 39.9375 -38.984375 L 34.109375 -27.203125 C 32.378906 -28.671875 29.972656 -29.40625 26.890625 -29.40625 C 25.210938 -29.40625 23.769531 -29.035156 22.5625 -28.296875 C 21.351562 -27.566406 20.5 -26.675781 20 -25.625 C 19.507812 -24.570312 19.15625 -23.679688 18.9375 -22.953125 C 18.726562 -22.222656 18.625 -21.644531 18.625 -21.21875 L 18.625 0 Z M 4.71875 0 "/></g></g></g><g fill="#ffffff" fill-opacity="1"><g transform="translate(123.116271, 68.122436)"><g><path d="M 7.46875 -4.984375 C 3.695312 -9.097656 1.8125 -14.140625 1.8125 -20.109375 C 1.8125 -26.085938 3.695312 -31.144531 7.46875 -35.28125 C 11.238281 -39.425781 16.035156 -41.5 21.859375 -41.5 C 27.203125 -41.5 31.601562 -39.820312 35.0625 -36.46875 L 35.0625 -40.328125 L 48.96875 -40.328125 L 48.96875 0 L 35.21875 0 L 35.21875 -4.5625 L 35.0625 -4.5625 C 31.601562 -0.738281 27.203125 1.171875 21.859375 1.171875 C 16.035156 1.171875 11.238281 -0.878906 7.46875 -4.984375 Z M 19.296875 -26.96875 C 17.492188 -25.1875 16.59375 -22.90625 16.59375 -20.125 C 16.59375 -17.34375 17.457031 -15.070312 19.1875 -13.3125 C 20.914062 -11.5625 23.191406 -10.6875 26.015625 -10.6875 C 28.742188 -10.6875 30.984375 -11.578125 32.734375 -13.359375 C 34.492188 -15.140625 35.375 -17.394531 35.375 -20.125 C 35.375 -22.90625 34.46875 -25.1875 32.65625 -26.96875 C 30.851562 -28.75 28.640625 -29.640625 26.015625 -29.640625 C 23.347656 -29.640625 21.109375 -28.75 19.296875 -26.96875 Z M 19.296875 -26.96875 "/></g></g></g><g fill="#ffffff" fill-opacity="1"><g transform="translate(169.405027, 68.122436)"><g><path d="M 7.078125 -40.328125 L 7.078125 -55.34375 L 20.984375 -55.34375 L 20.984375 -40.328125 L 29.484375 -40.328125 L 29.484375 -29.71875 L 20.984375 -29.71875 L 20.984375 -16.90625 C 20.984375 -13.175781 22.035156 -11.3125 24.140625 -11.3125 C 24.660156 -11.3125 25.207031 -11.414062 25.78125 -11.625 C 26.363281 -11.84375 26.8125 -12.054688 27.125 -12.265625 L 27.59375 -12.578125 L 31.046875 -1.34375 C 28.054688 0.332031 24.648438 1.171875 20.828125 1.171875 C 18.210938 1.171875 15.957031 0.710938 14.0625 -0.203125 C 12.175781 -1.117188 10.75 -2.347656 9.78125 -3.890625 C 8.8125 -5.429688 8.117188 -7.050781 7.703125 -8.75 C 7.285156 -10.457031 7.078125 -12.285156 7.078125 -14.234375 L 7.078125 -29.71875 L 1.25 -29.71875 L 1.25 -40.328125 Z M 7.078125 -40.328125 "/></g></g></g><g fill="#ffffff" fill-opacity="1"><g transform="translate(193.059178, 68.122436)"><g><path d="M 46.21875 -35.28125 C 49.988281 -31.144531 51.875 -26.085938 51.875 -20.109375 C 51.875 -14.140625 49.988281 -9.097656 46.21875 -4.984375 C 42.445312 -0.878906 37.65625 1.171875 31.84375 1.171875 C 26.488281 1.171875 22.082031 -0.738281 18.625 -4.5625 L 18.46875 -4.5625 L 18.46875 0 L 4.71875 0 L 4.71875 -67.609375 L 18.625 -67.609375 L 18.625 -36.46875 C 22.082031 -39.820312 26.488281 -41.5 31.84375 -41.5 C 37.65625 -41.5 42.445312 -39.425781 46.21875 -35.28125 Z M 34.515625 -13.3125 C 36.242188 -15.070312 37.109375 -17.34375 37.109375 -20.125 C 37.109375 -22.90625 36.203125 -25.1875 34.390625 -26.96875 C 32.578125 -28.75 30.335938 -29.640625 27.671875 -29.640625 C 25.046875 -29.640625 22.828125 -28.75 21.015625 -26.96875 C 19.210938 -25.1875 18.3125 -22.90625 18.3125 -20.125 C 18.3125 -17.394531 19.1875 -15.140625 20.9375 -13.359375 C 22.695312 -11.578125 24.941406 -10.6875 27.671875 -10.6875 C 30.503906 -10.6875 32.785156 -11.5625 34.515625 -13.3125 Z M 34.515625 -13.3125 "/></g></g></g><g fill="#ffffff" fill-opacity="1"><g transform="translate(239.347924, 68.122436)"><g><path d="M 45.515625 -18.234375 L 16.265625 -18.234375 C 16.265625 -15.410156 17.179688 -13.316406 19.015625 -11.953125 C 20.859375 -10.585938 22.851562 -9.90625 25 -9.90625 C 27.25 -9.90625 29.03125 -10.207031 30.34375 -10.8125 C 31.65625 -11.414062 33.148438 -12.609375 34.828125 -14.390625 L 44.890625 -9.359375 C 40.691406 -2.335938 33.71875 1.171875 23.96875 1.171875 C 17.894531 1.171875 12.679688 -0.90625 8.328125 -5.0625 C 3.984375 -9.226562 1.8125 -14.242188 1.8125 -20.109375 C 1.8125 -25.984375 3.984375 -31.015625 8.328125 -35.203125 C 12.679688 -39.398438 17.894531 -41.5 23.96875 -41.5 C 30.363281 -41.5 35.566406 -39.648438 39.578125 -35.953125 C 43.585938 -32.265625 45.59375 -26.988281 45.59375 -20.125 C 45.59375 -19.175781 45.566406 -18.546875 45.515625 -18.234375 Z M 16.671875 -25.9375 L 32 -25.9375 C 31.675781 -28.03125 30.847656 -29.640625 29.515625 -30.765625 C 28.179688 -31.898438 26.46875 -32.46875 24.375 -32.46875 C 22.0625 -32.46875 20.222656 -31.863281 18.859375 -30.65625 C 17.503906 -29.445312 16.773438 -27.875 16.671875 -25.9375 Z M 16.671875 -25.9375 "/></g></g></g><g fill="#ffffff" fill-opacity="1"><g transform="translate(279.349293, 68.122436)"><g><path d="M 4.71875 0 L 4.71875 -40.328125 L 18.625 -40.328125 L 18.625 -34.515625 L 18.78125 -34.515625 C 18.882812 -34.722656 19.054688 -34.984375 19.296875 -35.296875 C 19.535156 -35.609375 20.046875 -36.15625 20.828125 -36.9375 C 21.617188 -37.726562 22.457031 -38.4375 23.34375 -39.0625 C 24.238281 -39.695312 25.390625 -40.257812 26.796875 -40.75 C 28.210938 -41.25 29.65625 -41.5 31.125 -41.5 C 32.644531 -41.5 34.140625 -41.289062 35.609375 -40.875 C 37.078125 -40.457031 38.148438 -40.039062 38.828125 -39.625 L 39.9375 -38.984375 L 34.109375 -27.203125 C 32.378906 -28.671875 29.972656 -29.40625 26.890625 -29.40625 C 25.210938 -29.40625 23.769531 -29.035156 22.5625 -28.296875 C 21.351562 -27.566406 20.5 -26.675781 20 -25.625 C 19.507812 -24.570312 19.15625 -23.679688 18.9375 -22.953125 C 18.726562 -22.222656 18.625 -21.644531 18.625 -21.21875 L 18.625 0 Z M 4.71875 0 "/></g></g></g><g fill="#ffffff" fill-opacity="1"><g transform="translate(311.09845, 68.122436)"><g><path d="M 13.671875 -16.828125 C 16.191406 -16.828125 18.328125 -15.945312 20.078125 -14.1875 C 21.835938 -12.4375 22.71875 -10.300781 22.71875 -7.78125 C 22.71875 -5.320312 21.835938 -3.210938 20.078125 -1.453125 C 18.328125 0.296875 16.191406 1.171875 13.671875 1.171875 C 11.210938 1.171875 9.101562 0.296875 7.34375 -1.453125 C 5.59375 -3.210938 4.71875 -5.320312 4.71875 -7.78125 C 4.71875 -10.300781 5.59375 -12.4375 7.34375 -14.1875 C 9.101562 -15.945312 11.210938 -16.828125 13.671875 -16.828125 Z M 13.671875 -16.828125 "/></g></g></g><g fill="#ffffff" fill-opacity="1"><g transform="translate(96.172239, 107.907306)"><g><path d="M 2.828125 -0.765625 C 2.828125 -0.546875 2.75 -0.363281 2.59375 -0.21875 C 2.4375 -0.0703125 2.253906 0 2.046875 0 C 1.816406 0 1.628906 -0.0703125 1.484375 -0.21875 C 1.347656 -0.363281 1.28125 -0.546875 1.28125 -0.765625 L 1.28125 -10.109375 C 1.28125 -10.316406 1.351562 -10.492188 1.5 -10.640625 C 1.644531 -10.785156 1.832031 -10.859375 2.0625 -10.859375 C 2.269531 -10.859375 2.445312 -10.785156 2.59375 -10.640625 C 2.75 -10.492188 2.828125 -10.316406 2.828125 -10.109375 Z M 2.828125 -0.765625 "/></g></g></g><g fill="#ffffff" fill-opacity="1"><g transform="translate(110.4026, 107.907306)"><g><path d="M 5.25 -8.3125 C 7.101562 -8.3125 8.03125 -7.195312 8.03125 -4.96875 L 8.03125 -0.75 C 8.03125 -0.539062 7.960938 -0.363281 7.828125 -0.21875 C 7.691406 -0.0703125 7.515625 0 7.296875 0 C 7.085938 0 6.910156 -0.0703125 6.765625 -0.21875 C 6.628906 -0.363281 6.5625 -0.539062 6.5625 -0.75 L 6.5625 -4.953125 C 6.5625 -5.554688 6.421875 -6.039062 6.140625 -6.40625 C 5.859375 -6.769531 5.40625 -6.953125 4.78125 -6.953125 C 4.363281 -6.953125 3.988281 -6.859375 3.65625 -6.671875 C 3.320312 -6.492188 3.054688 -6.253906 2.859375 -5.953125 C 2.671875 -5.648438 2.578125 -5.316406 2.578125 -4.953125 L 2.578125 -0.75 C 2.578125 -0.539062 2.503906 -0.363281 2.359375 -0.21875 C 2.222656 -0.0703125 2.046875 0 1.828125 0 C 1.609375 0 1.429688 -0.0664062 1.296875 -0.203125 C 1.171875 -0.347656 1.109375 -0.53125 1.109375 -0.75 L 1.109375 -7.390625 C 1.109375 -7.597656 1.175781 -7.769531 1.3125 -7.90625 C 1.445312 -8.050781 1.617188 -8.125 1.828125 -8.125 C 2.046875 -8.125 2.222656 -8.050781 2.359375 -7.90625 C 2.503906 -7.769531 2.578125 -7.597656 2.578125 -7.390625 L 2.578125 -6.84375 C 2.847656 -7.257812 3.222656 -7.609375 3.703125 -7.890625 C 4.179688 -8.171875 4.695312 -8.3125 5.25 -8.3125 Z M 5.25 -8.3125 "/></g></g></g><g fill="#ffffff" fill-opacity="1"><g transform="translate(129.658709, 107.907306)"><g><path d="M 5.25 -8.3125 C 7.101562 -8.3125 8.03125 -7.195312 8.03125 -4.96875 L 8.03125 -0.75 C 8.03125 -0.539062 7.960938 -0.363281 7.828125 -0.21875 C 7.691406 -0.0703125 7.515625 0 7.296875 0 C 7.085938 0 6.910156 -0.0703125 6.765625 -0.21875 C 6.628906 -0.363281 6.5625 -0.539062 6.5625 -0.75 L 6.5625 -4.953125 C 6.5625 -5.554688 6.421875 -6.039062 6.140625 -6.40625 C 5.859375 -6.769531 5.40625 -6.953125 4.78125 -6.953125 C 4.363281 -6.953125 3.988281 -6.859375 3.65625 -6.671875 C 3.320312 -6.492188 3.054688 -6.253906 2.859375 -5.953125 C 2.671875 -5.648438 2.578125 -5.316406 2.578125 -4.953125 L 2.578125 -0.75 C 2.578125 -0.539062 2.503906 -0.363281 2.359375 -0.21875 C 2.222656 -0.0703125 2.046875 0 1.828125 0 C 1.609375 0 1.429688 -0.0664062 1.296875 -0.203125 C 1.171875 -0.347656 1.109375 -0.53125 1.109375 -0.75 L 1.109375 -7.390625 C 1.109375 -7.597656 1.175781 -7.769531 1.3125 -7.90625 C 1.445312 -8.050781 1.617188 -8.125 1.828125 -8.125 C 2.046875 -8.125 2.222656 -8.050781 2.359375 -7.90625 C 2.503906 -7.769531 2.578125 -7.597656 2.578125 -7.390625 L 2.578125 -6.84375 C 2.847656 -7.257812 3.222656 -7.609375 3.703125 -7.890625 C 4.179688 -8.171875 4.695312 -8.3125 5.25 -8.3125 Z M 5.25 -8.3125 "/></g></g></g><g fill="#ffffff" fill-opacity="1"><g transform="translate(148.914817, 107.907306)"><g><path d="M 8.796875 -4.0625 C 8.796875 -3.257812 8.613281 -2.535156 8.25 -1.890625 C 7.894531 -1.253906 7.398438 -0.753906 6.765625 -0.390625 C 6.140625 -0.0234375 5.453125 0.15625 4.703125 0.15625 C 3.941406 0.15625 3.25 -0.0234375 2.625 -0.390625 C 2 -0.753906 1.503906 -1.253906 1.140625 -1.890625 C 0.785156 -2.535156 0.609375 -3.257812 0.609375 -4.0625 C 0.609375 -4.875 0.785156 -5.601562 1.140625 -6.25 C 1.503906 -6.90625 2 -7.410156 2.625 -7.765625 C 3.25 -8.128906 3.941406 -8.3125 4.703125 -8.3125 C 5.453125 -8.3125 6.140625 -8.128906 6.765625 -7.765625 C 7.398438 -7.410156 7.894531 -6.90625 8.25 -6.25 C 8.613281 -5.601562 8.796875 -4.875 8.796875 -4.0625 Z M 7.328125 -4.0625 C 7.328125 -4.625 7.207031 -5.125 6.96875 -5.5625 C 6.738281 -6 6.425781 -6.335938 6.03125 -6.578125 C 5.632812 -6.828125 5.191406 -6.953125 4.703125 -6.953125 C 4.210938 -6.953125 3.769531 -6.828125 3.375 -6.578125 C 2.976562 -6.335938 2.660156 -6 2.421875 -5.5625 C 2.191406 -5.125 2.078125 -4.625 2.078125 -4.0625 C 2.078125 -3.519531 2.191406 -3.03125 2.421875 -2.59375 C 2.660156 -2.15625 2.976562 -1.8125 3.375 -1.5625 C 3.769531 -1.320312 4.210938 -1.203125 4.703125 -1.203125 C 5.191406 -1.203125 5.632812 -1.320312 6.03125 -1.5625 C 6.425781 -1.8125 6.738281 -2.15625 6.96875 -2.59375 C 7.207031 -3.03125 7.328125 -3.519531 7.328125 -4.0625 Z M 7.328125 -4.0625 "/></g></g></g><g fill="#ffffff" fill-opacity="1"><g transform="translate(168.43463, 107.907306)"><g><path d="M 7.3125 -8.203125 C 7.507812 -8.203125 7.671875 -8.132812 7.796875 -8 C 7.929688 -7.875 8 -7.726562 8 -7.5625 C 8 -7.46875 7.960938 -7.335938 7.890625 -7.171875 L 4.953125 -0.46875 C 4.890625 -0.332031 4.800781 -0.222656 4.6875 -0.140625 C 4.570312 -0.0546875 4.445312 -0.0078125 4.3125 0 C 4.144531 0.0195312 3.988281 -0.0078125 3.84375 -0.09375 C 3.707031 -0.175781 3.601562 -0.300781 3.53125 -0.46875 L 0.59375 -7.171875 C 0.539062 -7.328125 0.515625 -7.457031 0.515625 -7.5625 C 0.515625 -7.71875 0.582031 -7.863281 0.71875 -8 C 0.851562 -8.132812 1.023438 -8.203125 1.234375 -8.203125 C 1.390625 -8.203125 1.53125 -8.160156 1.65625 -8.078125 C 1.78125 -8.003906 1.878906 -7.894531 1.953125 -7.75 L 4.296875 -2.296875 L 6.640625 -7.75 C 6.785156 -8.050781 7.007812 -8.203125 7.3125 -8.203125 Z M 7.3125 -8.203125 "/></g></g></g><g fill="#ffffff" fill-opacity="1"><g transform="translate(187.054761, 107.907306)"><g><path d="M 7.703125 -8.234375 C 7.910156 -8.234375 8.082031 -8.160156 8.21875 -8.015625 C 8.363281 -7.878906 8.4375 -7.703125 8.4375 -7.484375 L 8.4375 -0.75 C 8.4375 -0.539062 8.363281 -0.363281 8.21875 -0.21875 C 8.082031 -0.0703125 7.910156 0 7.703125 0 C 7.484375 0 7.304688 -0.0664062 7.171875 -0.203125 C 7.035156 -0.347656 6.96875 -0.53125 6.96875 -0.75 L 6.96875 -1.140625 C 6.695312 -0.785156 6.328125 -0.476562 5.859375 -0.21875 C 5.398438 0.03125 4.898438 0.15625 4.359375 0.15625 C 3.660156 0.15625 3.019531 -0.0234375 2.4375 -0.390625 C 1.863281 -0.753906 1.414062 -1.257812 1.09375 -1.90625 C 0.769531 -2.550781 0.609375 -3.273438 0.609375 -4.078125 C 0.609375 -4.890625 0.769531 -5.617188 1.09375 -6.265625 C 1.414062 -6.910156 1.863281 -7.410156 2.4375 -7.765625 C 3.007812 -8.128906 3.632812 -8.3125 4.3125 -8.3125 C 4.863281 -8.3125 5.375 -8.195312 5.84375 -7.96875 C 6.3125 -7.75 6.6875 -7.460938 6.96875 -7.109375 L 6.96875 -7.484375 C 6.96875 -7.691406 7.035156 -7.867188 7.171875 -8.015625 C 7.304688 -8.160156 7.484375 -8.234375 7.703125 -8.234375 Z M 4.53125 -1.203125 C 5.019531 -1.203125 5.453125 -1.328125 5.828125 -1.578125 C 6.203125 -1.828125 6.492188 -2.171875 6.703125 -2.609375 C 6.921875 -3.046875 7.03125 -3.535156 7.03125 -4.078125 C 7.03125 -4.617188 6.921875 -5.101562 6.703125 -5.53125 C 6.492188 -5.96875 6.203125 -6.3125 5.828125 -6.5625 C 5.453125 -6.820312 5.019531 -6.953125 4.53125 -6.953125 C 4.039062 -6.953125 3.609375 -6.828125 3.234375 -6.578125 C 2.859375 -6.328125 2.5625 -5.984375 2.34375 -5.546875 C 2.132812 -5.117188 2.03125 -4.628906 2.03125 -4.078125 C 2.03125 -3.535156 2.132812 -3.046875 2.34375 -2.609375 C 2.5625 -2.171875 2.859375 -1.828125 3.234375 -1.578125 C 3.609375 -1.328125 4.039062 -1.203125 4.53125 -1.203125 Z M 4.53125 -1.203125 "/></g></g></g><g fill="#ffffff" fill-opacity="1"><g transform="translate(206.69867, 107.907306)"><g><path d="M 3.3125 -6.6875 L 3.3125 -2.0625 C 3.3125 -1.539062 3.539062 -1.28125 4 -1.28125 C 4.070312 -1.28125 4.171875 -1.296875 4.296875 -1.328125 C 4.421875 -1.367188 4.519531 -1.390625 4.59375 -1.390625 C 4.726562 -1.390625 4.84375 -1.332031 4.9375 -1.21875 C 5.03125 -1.113281 5.078125 -0.972656 5.078125 -0.796875 C 5.078125 -0.578125 4.953125 -0.390625 4.703125 -0.234375 C 4.453125 -0.078125 4.171875 0 3.859375 0 C 3.515625 0 3.203125 -0.0351562 2.921875 -0.109375 C 2.640625 -0.179688 2.382812 -0.363281 2.15625 -0.65625 C 1.9375 -0.957031 1.828125 -1.40625 1.828125 -2 L 1.828125 -6.6875 L 0.9375 -6.6875 C 0.738281 -6.6875 0.570312 -6.75 0.4375 -6.875 C 0.3125 -7.007812 0.25 -7.175781 0.25 -7.375 C 0.25 -7.570312 0.3125 -7.726562 0.4375 -7.84375 C 0.570312 -7.96875 0.738281 -8.03125 0.9375 -8.03125 L 1.828125 -8.03125 L 1.828125 -9.34375 C 1.828125 -9.550781 1.894531 -9.722656 2.03125 -9.859375 C 2.175781 -10.003906 2.359375 -10.078125 2.578125 -10.078125 C 2.785156 -10.078125 2.957031 -10.003906 3.09375 -9.859375 C 3.238281 -9.722656 3.3125 -9.550781 3.3125 -9.34375 L 3.3125 -8.03125 L 4.59375 -8.03125 C 4.789062 -8.03125 4.953125 -7.96875 5.078125 -7.84375 C 5.210938 -7.71875 5.28125 -7.554688 5.28125 -7.359375 C 5.28125 -7.160156 5.210938 -7 5.078125 -6.875 C 4.953125 -6.75 4.789062 -6.6875 4.59375 -6.6875 Z M 3.3125 -6.6875 "/></g></g></g><g fill="#ffffff" fill-opacity="1"><g transform="translate(222.712866, 107.907306)"><g><path d="M 2.5 -0.75 C 2.5 -0.539062 2.425781 -0.363281 2.28125 -0.21875 C 2.144531 -0.0703125 1.96875 0 1.75 0 C 1.539062 0 1.367188 -0.0703125 1.234375 -0.21875 C 1.097656 -0.363281 1.03125 -0.539062 1.03125 -0.75 L 1.03125 -7.46875 C 1.03125 -7.664062 1.097656 -7.835938 1.234375 -7.984375 C 1.367188 -8.128906 1.539062 -8.203125 1.75 -8.203125 C 1.96875 -8.203125 2.144531 -8.128906 2.28125 -7.984375 C 2.425781 -7.835938 2.5 -7.664062 2.5 -7.46875 Z M 1.75 -9.234375 C 1.445312 -9.234375 1.226562 -9.285156 1.09375 -9.390625 C 0.96875 -9.503906 0.90625 -9.679688 0.90625 -9.921875 L 0.90625 -10.15625 C 0.90625 -10.40625 0.972656 -10.582031 1.109375 -10.6875 C 1.253906 -10.789062 1.472656 -10.84375 1.765625 -10.84375 C 2.054688 -10.84375 2.265625 -10.785156 2.390625 -10.671875 C 2.515625 -10.566406 2.578125 -10.394531 2.578125 -10.15625 L 2.578125 -9.921875 C 2.578125 -9.671875 2.507812 -9.492188 2.375 -9.390625 C 2.25 -9.285156 2.039062 -9.234375 1.75 -9.234375 Z M 1.75 -9.234375 "/></g></g></g><g fill="#ffffff" fill-opacity="1"><g transform="translate(236.353777, 107.907306)"><g><path d="M 8.796875 -4.0625 C 8.796875 -3.257812 8.613281 -2.535156 8.25 -1.890625 C 7.894531 -1.253906 7.398438 -0.753906 6.765625 -0.390625 C 6.140625 -0.0234375 5.453125 0.15625 4.703125 0.15625 C 3.941406 0.15625 3.25 -0.0234375 2.625 -0.390625 C 2 -0.753906 1.503906 -1.253906 1.140625 -1.890625 C 0.785156 -2.535156 0.609375 -3.257812 0.609375 -4.0625 C 0.609375 -4.875 0.785156 -5.601562 1.140625 -6.25 C 1.503906 -6.90625 2 -7.410156 2.625 -7.765625 C 3.25 -8.128906 3.941406 -8.3125 4.703125 -8.3125 C 5.453125 -8.3125 6.140625 -8.128906 6.765625 -7.765625 C 7.398438 -7.410156 7.894531 -6.90625 8.25 -6.25 C 8.613281 -5.601562 8.796875 -4.875 8.796875 -4.0625 Z M 7.328125 -4.0625 C 7.328125 -4.625 7.207031 -5.125 6.96875 -5.5625 C 6.738281 -6 6.425781 -6.335938 6.03125 -6.578125 C 5.632812 -6.828125 5.191406 -6.953125 4.703125 -6.953125 C 4.210938 -6.953125 3.769531 -6.828125 3.375 -6.578125 C 2.976562 -6.335938 2.660156 -6 2.421875 -5.5625 C 2.191406 -5.125 2.078125 -4.625 2.078125 -4.0625 C 2.078125 -3.519531 2.191406 -3.03125 2.421875 -2.59375 C 2.660156 -2.15625 2.976562 -1.8125 3.375 -1.5625 C 3.769531 -1.320312 4.210938 -1.203125 4.703125 -1.203125 C 5.191406 -1.203125 5.632812 -1.320312 6.03125 -1.5625 C 6.425781 -1.8125 6.738281 -2.15625 6.96875 -2.59375 C 7.207031 -3.03125 7.328125 -3.519531 7.328125 -4.0625 Z M 7.328125 -4.0625 "/></g></g></g><g fill="#ffffff" fill-opacity="1"><g transform="translate(255.873598, 107.907306)"><g><path d="M 5.25 -8.3125 C 7.101562 -8.3125 8.03125 -7.195312 8.03125 -4.96875 L 8.03125 -0.75 C 8.03125 -0.539062 7.960938 -0.363281 7.828125 -0.21875 C 7.691406 -0.0703125 7.515625 0 7.296875 0 C 7.085938 0 6.910156 -0.0703125 6.765625 -0.21875 C 6.628906 -0.363281 6.5625 -0.539062 6.5625 -0.75 L 6.5625 -4.953125 C 6.5625 -5.554688 6.421875 -6.039062 6.140625 -6.40625 C 5.859375 -6.769531 5.40625 -6.953125 4.78125 -6.953125 C 4.363281 -6.953125 3.988281 -6.859375 3.65625 -6.671875 C 3.320312 -6.492188 3.054688 -6.253906 2.859375 -5.953125 C 2.671875 -5.648438 2.578125 -5.316406 2.578125 -4.953125 L 2.578125 -0.75 C 2.578125 -0.539062 2.503906 -0.363281 2.359375 -0.21875 C 2.222656 -0.0703125 2.046875 0 1.828125 0 C 1.609375 0 1.429688 -0.0664062 1.296875 -0.203125 C 1.171875 -0.347656 1.109375 -0.53125 1.109375 -0.75 L 1.109375 -7.390625 C 1.109375 -7.597656 1.175781 -7.769531 1.3125 -7.90625 C 1.445312 -8.050781 1.617188 -8.125 1.828125 -8.125 C 2.046875 -8.125 2.222656 -8.050781 2.359375 -7.90625 C 2.503906 -7.769531 2.578125 -7.597656 2.578125 -7.390625 L 2.578125 -6.84375 C 2.847656 -7.257812 3.222656 -7.609375 3.703125 -7.890625 C 4.179688 -8.171875 4.695312 -8.3125 5.25 -8.3125 Z M 5.25 -8.3125 "/></g></g></g><g fill="#ffffff" fill-opacity="1"><g transform="translate(86.240077, 89.552908)"><g><path d="M 11.15625 -5.4375 C 11.15625 -4.382812 10.929688 -3.429688 10.484375 -2.578125 C 10.035156 -1.734375 9.410156 -1.066406 8.609375 -0.578125 C 7.816406 -0.0859375 6.914062 0.15625 5.90625 0.15625 C 4.90625 0.15625 4.003906 -0.0859375 3.203125 -0.578125 C 2.410156 -1.066406 1.789062 -1.734375 1.34375 -2.578125 C 0.894531 -3.429688 0.671875 -4.382812 0.671875 -5.4375 C 0.671875 -6.476562 0.894531 -7.421875 1.34375 -8.265625 C 1.789062 -9.117188 2.410156 -9.789062 3.203125 -10.28125 C 4.003906 -10.769531 4.90625 -11.015625 5.90625 -11.015625 C 6.914062 -11.015625 7.816406 -10.769531 8.609375 -10.28125 C 9.410156 -9.789062 10.035156 -9.117188 10.484375 -8.265625 C 10.929688 -7.421875 11.15625 -6.476562 11.15625 -5.4375 Z M 9.5625 -5.4375 C 9.5625 -6.207031 9.40625 -6.90625 9.09375 -7.53125 C 8.78125 -8.15625 8.347656 -8.644531 7.796875 -9 C 7.242188 -9.363281 6.613281 -9.546875 5.90625 -9.546875 C 5.207031 -9.546875 4.582031 -9.367188 4.03125 -9.015625 C 3.476562 -8.660156 3.046875 -8.171875 2.734375 -7.546875 C 2.421875 -6.921875 2.265625 -6.21875 2.265625 -5.4375 C 2.265625 -4.65625 2.421875 -3.953125 2.734375 -3.328125 C 3.046875 -2.703125 3.476562 -2.207031 4.03125 -1.84375 C 4.582031 -1.488281 5.207031 -1.3125 5.90625 -1.3125 C 6.613281 -1.3125 7.242188 -1.488281 7.796875 -1.84375 C 8.347656 -2.207031 8.78125 -2.703125 9.09375 -3.328125 C 9.40625 -3.953125 9.5625 -4.65625 9.5625 -5.4375 Z M 9.5625 -5.4375 "/></g></g></g><g fill="#ffffff" fill-opacity="1"><g transform="translate(108.179686, 89.552908)"><g><path d="M 5.1875 -8.265625 C 5.882812 -8.265625 6.515625 -8.085938 7.078125 -7.734375 C 7.648438 -7.378906 8.097656 -6.878906 8.421875 -6.234375 C 8.753906 -5.597656 8.921875 -4.875 8.921875 -4.0625 C 8.921875 -3.257812 8.753906 -2.539062 8.421875 -1.90625 C 8.097656 -1.269531 7.648438 -0.769531 7.078125 -0.40625 C 6.515625 -0.0390625 5.894531 0.140625 5.21875 0.140625 C 4.675781 0.140625 4.171875 0.0195312 3.703125 -0.21875 C 3.242188 -0.457031 2.867188 -0.75 2.578125 -1.09375 L 2.578125 2.359375 C 2.578125 2.566406 2.503906 2.742188 2.359375 2.890625 C 2.222656 3.035156 2.046875 3.109375 1.828125 3.109375 C 1.617188 3.109375 1.445312 3.035156 1.3125 2.890625 C 1.175781 2.753906 1.109375 2.578125 1.109375 2.359375 L 1.109375 -7.40625 C 1.109375 -7.625 1.171875 -7.800781 1.296875 -7.9375 C 1.429688 -8.082031 1.609375 -8.15625 1.828125 -8.15625 C 2.046875 -8.15625 2.222656 -8.082031 2.359375 -7.9375 C 2.503906 -7.800781 2.578125 -7.625 2.578125 -7.40625 L 2.578125 -6.953125 C 2.828125 -7.316406 3.1875 -7.625 3.65625 -7.875 C 4.132812 -8.132812 4.644531 -8.265625 5.1875 -8.265625 Z M 5.015625 -1.21875 C 5.484375 -1.21875 5.910156 -1.34375 6.296875 -1.59375 C 6.679688 -1.84375 6.976562 -2.179688 7.1875 -2.609375 C 7.40625 -3.046875 7.515625 -3.53125 7.515625 -4.0625 C 7.515625 -4.601562 7.40625 -5.085938 7.1875 -5.515625 C 6.976562 -5.941406 6.679688 -6.28125 6.296875 -6.53125 C 5.910156 -6.78125 5.484375 -6.90625 5.015625 -6.90625 C 4.523438 -6.90625 4.085938 -6.78125 3.703125 -6.53125 C 3.328125 -6.289062 3.03125 -5.953125 2.8125 -5.515625 C 2.601562 -5.085938 2.5 -4.601562 2.5 -4.0625 C 2.5 -3.53125 2.601562 -3.046875 2.8125 -2.609375 C 3.03125 -2.171875 3.328125 -1.828125 3.703125 -1.578125 C 4.085938 -1.335938 4.523438 -1.21875 5.015625 -1.21875 Z M 5.015625 -1.21875 "/></g></g></g><g fill="#ffffff" fill-opacity="1"><g transform="translate(127.823596, 89.552908)"><g><path d="M 8.234375 -4.375 C 8.222656 -4.1875 8.144531 -4.023438 8 -3.890625 C 7.851562 -3.765625 7.6875 -3.703125 7.5 -3.703125 L 2.03125 -3.703125 C 2.101562 -2.953125 2.390625 -2.347656 2.890625 -1.890625 C 3.390625 -1.429688 4.003906 -1.203125 4.734375 -1.203125 C 5.234375 -1.203125 5.632812 -1.273438 5.9375 -1.421875 C 6.25 -1.566406 6.523438 -1.753906 6.765625 -1.984375 C 6.921875 -2.078125 7.070312 -2.125 7.21875 -2.125 C 7.394531 -2.125 7.539062 -2.0625 7.65625 -1.9375 C 7.769531 -1.8125 7.828125 -1.664062 7.828125 -1.5 C 7.828125 -1.28125 7.726562 -1.085938 7.53125 -0.921875 C 7.226562 -0.617188 6.828125 -0.363281 6.328125 -0.15625 C 5.828125 0.0507812 5.320312 0.15625 4.8125 0.15625 C 3.96875 0.15625 3.226562 -0.0195312 2.59375 -0.375 C 1.957031 -0.726562 1.46875 -1.21875 1.125 -1.84375 C 0.78125 -2.476562 0.609375 -3.191406 0.609375 -3.984375 C 0.609375 -4.859375 0.785156 -5.625 1.140625 -6.28125 C 1.492188 -6.9375 1.960938 -7.4375 2.546875 -7.78125 C 3.128906 -8.132812 3.757812 -8.3125 4.4375 -8.3125 C 5.101562 -8.3125 5.722656 -8.140625 6.296875 -7.796875 C 6.878906 -7.460938 7.34375 -6.992188 7.6875 -6.390625 C 8.039062 -5.796875 8.222656 -5.125 8.234375 -4.375 Z M 4.4375 -6.953125 C 3.851562 -6.953125 3.347656 -6.785156 2.921875 -6.453125 C 2.503906 -6.128906 2.226562 -5.628906 2.09375 -4.953125 L 6.671875 -4.953125 L 6.671875 -5.078125 C 6.617188 -5.617188 6.375 -6.066406 5.9375 -6.421875 C 5.5 -6.773438 5 -6.953125 4.4375 -6.953125 Z M 4.4375 -6.953125 "/></g></g></g><g fill="#ffffff" fill-opacity="1"><g transform="translate(146.78498, 89.552908)"><g><path d="M 5.15625 -8.3125 C 5.414062 -8.3125 5.644531 -8.238281 5.84375 -8.09375 C 6.039062 -7.957031 6.140625 -7.789062 6.140625 -7.59375 C 6.140625 -7.34375 6.070312 -7.148438 5.9375 -7.015625 C 5.8125 -6.890625 5.660156 -6.828125 5.484375 -6.828125 C 5.390625 -6.828125 5.25 -6.859375 5.0625 -6.921875 C 4.84375 -6.992188 4.671875 -7.03125 4.546875 -7.03125 C 4.222656 -7.03125 3.910156 -6.914062 3.609375 -6.6875 C 3.304688 -6.46875 3.054688 -6.164062 2.859375 -5.78125 C 2.671875 -5.394531 2.578125 -4.960938 2.578125 -4.484375 L 2.578125 -0.75 C 2.578125 -0.539062 2.503906 -0.363281 2.359375 -0.21875 C 2.222656 -0.0703125 2.046875 0 1.828125 0 C 1.609375 0 1.429688 -0.0664062 1.296875 -0.203125 C 1.171875 -0.347656 1.109375 -0.53125 1.109375 -0.75 L 1.109375 -7.390625 C 1.109375 -7.597656 1.175781 -7.769531 1.3125 -7.90625 C 1.445312 -8.050781 1.617188 -8.125 1.828125 -8.125 C 2.046875 -8.125 2.222656 -8.050781 2.359375 -7.90625 C 2.503906 -7.769531 2.578125 -7.597656 2.578125 -7.390625 L 2.578125 -6.59375 C 2.804688 -7.101562 3.144531 -7.515625 3.59375 -7.828125 C 4.050781 -8.140625 4.570312 -8.300781 5.15625 -8.3125 Z M 5.15625 -8.3125 "/></g></g></g><g fill="#ffffff" fill-opacity="1"><g transform="translate(163.311057, 89.552908)"><g><path d="M 7.703125 -8.234375 C 7.910156 -8.234375 8.082031 -8.160156 8.21875 -8.015625 C 8.363281 -7.878906 8.4375 -7.703125 8.4375 -7.484375 L 8.4375 -0.75 C 8.4375 -0.539062 8.363281 -0.363281 8.21875 -0.21875 C 8.082031 -0.0703125 7.910156 0 7.703125 0 C 7.484375 0 7.304688 -0.0664062 7.171875 -0.203125 C 7.035156 -0.347656 6.96875 -0.53125 6.96875 -0.75 L 6.96875 -1.140625 C 6.695312 -0.785156 6.328125 -0.476562 5.859375 -0.21875 C 5.398438 0.03125 4.898438 0.15625 4.359375 0.15625 C 3.660156 0.15625 3.019531 -0.0234375 2.4375 -0.390625 C 1.863281 -0.753906 1.414062 -1.257812 1.09375 -1.90625 C 0.769531 -2.550781 0.609375 -3.273438 0.609375 -4.078125 C 0.609375 -4.890625 0.769531 -5.617188 1.09375 -6.265625 C 1.414062 -6.910156 1.863281 -7.410156 2.4375 -7.765625 C 3.007812 -8.128906 3.632812 -8.3125 4.3125 -8.3125 C 4.863281 -8.3125 5.375 -8.195312 5.84375 -7.96875 C 6.3125 -7.75 6.6875 -7.460938 6.96875 -7.109375 L 6.96875 -7.484375 C 6.96875 -7.691406 7.035156 -7.867188 7.171875 -8.015625 C 7.304688 -8.160156 7.484375 -8.234375 7.703125 -8.234375 Z M 4.53125 -1.203125 C 5.019531 -1.203125 5.453125 -1.328125 5.828125 -1.578125 C 6.203125 -1.828125 6.492188 -2.171875 6.703125 -2.609375 C 6.921875 -3.046875 7.03125 -3.535156 7.03125 -4.078125 C 7.03125 -4.617188 6.921875 -5.101562 6.703125 -5.53125 C 6.492188 -5.96875 6.203125 -6.3125 5.828125 -6.5625 C 5.453125 -6.820312 5.019531 -6.953125 4.53125 -6.953125 C 4.039062 -6.953125 3.609375 -6.828125 3.234375 -6.578125 C 2.859375 -6.328125 2.5625 -5.984375 2.34375 -5.546875 C 2.132812 -5.117188 2.03125 -4.628906 2.03125 -4.078125 C 2.03125 -3.535156 2.132812 -3.046875 2.34375 -2.609375 C 2.5625 -2.171875 2.859375 -1.828125 3.234375 -1.578125 C 3.609375 -1.328125 4.039062 -1.203125 4.53125 -1.203125 Z M 4.53125 -1.203125 "/></g></g></g><g fill="#ffffff" fill-opacity="1"><g transform="translate(182.954967, 89.552908)"><g><path d="M 3.3125 -6.6875 L 3.3125 -2.0625 C 3.3125 -1.539062 3.539062 -1.28125 4 -1.28125 C 4.070312 -1.28125 4.171875 -1.296875 4.296875 -1.328125 C 4.421875 -1.367188 4.519531 -1.390625 4.59375 -1.390625 C 4.726562 -1.390625 4.84375 -1.332031 4.9375 -1.21875 C 5.03125 -1.113281 5.078125 -0.972656 5.078125 -0.796875 C 5.078125 -0.578125 4.953125 -0.390625 4.703125 -0.234375 C 4.453125 -0.078125 4.171875 0 3.859375 0 C 3.515625 0 3.203125 -0.0351562 2.921875 -0.109375 C 2.640625 -0.179688 2.382812 -0.363281 2.15625 -0.65625 C 1.9375 -0.957031 1.828125 -1.40625 1.828125 -2 L 1.828125 -6.6875 L 0.9375 -6.6875 C 0.738281 -6.6875 0.570312 -6.75 0.4375 -6.875 C 0.3125 -7.007812 0.25 -7.175781 0.25 -7.375 C 0.25 -7.570312 0.3125 -7.726562 0.4375 -7.84375 C 0.570312 -7.96875 0.738281 -8.03125 0.9375 -8.03125 L 1.828125 -8.03125 L 1.828125 -9.34375 C 1.828125 -9.550781 1.894531 -9.722656 2.03125 -9.859375 C 2.175781 -10.003906 2.359375 -10.078125 2.578125 -10.078125 C 2.785156 -10.078125 2.957031 -10.003906 3.09375 -9.859375 C 3.238281 -9.722656 3.3125 -9.550781 3.3125 -9.34375 L 3.3125 -8.03125 L 4.59375 -8.03125 C 4.789062 -8.03125 4.953125 -7.96875 5.078125 -7.84375 C 5.210938 -7.71875 5.28125 -7.554688 5.28125 -7.359375 C 5.28125 -7.160156 5.210938 -7 5.078125 -6.875 C 4.953125 -6.75 4.789062 -6.6875 4.59375 -6.6875 Z M 3.3125 -6.6875 "/></g></g></g><g fill="#ffffff" fill-opacity="1"><g transform="translate(198.969163, 89.552908)"><g><path d="M 2.5 -0.75 C 2.5 -0.539062 2.425781 -0.363281 2.28125 -0.21875 C 2.144531 -0.0703125 1.96875 0 1.75 0 C 1.539062 0 1.367188 -0.0703125 1.234375 -0.21875 C 1.097656 -0.363281 1.03125 -0.539062 1.03125 -0.75 L 1.03125 -7.46875 C 1.03125 -7.664062 1.097656 -7.835938 1.234375 -7.984375 C 1.367188 -8.128906 1.539062 -8.203125 1.75 -8.203125 C 1.96875 -8.203125 2.144531 -8.128906 2.28125 -7.984375 C 2.425781 -7.835938 2.5 -7.664062 2.5 -7.46875 Z M 1.75 -9.234375 C 1.445312 -9.234375 1.226562 -9.285156 1.09375 -9.390625 C 0.96875 -9.503906 0.90625 -9.679688 0.90625 -9.921875 L 0.90625 -10.15625 C 0.90625 -10.40625 0.972656 -10.582031 1.109375 -10.6875 C 1.253906 -10.789062 1.472656 -10.84375 1.765625 -10.84375 C 2.054688 -10.84375 2.265625 -10.785156 2.390625 -10.671875 C 2.515625 -10.566406 2.578125 -10.394531 2.578125 -10.15625 L 2.578125 -9.921875 C 2.578125 -9.671875 2.507812 -9.492188 2.375 -9.390625 C 2.25 -9.285156 2.039062 -9.234375 1.75 -9.234375 Z M 1.75 -9.234375 "/></g></g></g><g fill="#ffffff" fill-opacity="1"><g transform="translate(212.610074, 89.552908)"><g><path d="M 8.796875 -4.0625 C 8.796875 -3.257812 8.613281 -2.535156 8.25 -1.890625 C 7.894531 -1.253906 7.398438 -0.753906 6.765625 -0.390625 C 6.140625 -0.0234375 5.453125 0.15625 4.703125 0.15625 C 3.941406 0.15625 3.25 -0.0234375 2.625 -0.390625 C 2 -0.753906 1.503906 -1.253906 1.140625 -1.890625 C 0.785156 -2.535156 0.609375 -3.257812 0.609375 -4.0625 C 0.609375 -4.875 0.785156 -5.601562 1.140625 -6.25 C 1.503906 -6.90625 2 -7.410156 2.625 -7.765625 C 3.25 -8.128906 3.941406 -8.3125 4.703125 -8.3125 C 5.453125 -8.3125 6.140625 -8.128906 6.765625 -7.765625 C 7.398438 -7.410156 7.894531 -6.90625 8.25 -6.25 C 8.613281 -5.601562 8.796875 -4.875 8.796875 -4.0625 Z M 7.328125 -4.0625 C 7.328125 -4.625 7.207031 -5.125 6.96875 -5.5625 C 6.738281 -6 6.425781 -6.335938 6.03125 -6.578125 C 5.632812 -6.828125 5.191406 -6.953125 4.703125 -6.953125 C 4.210938 -6.953125 3.769531 -6.828125 3.375 -6.578125 C 2.976562 -6.335938 2.660156 -6 2.421875 -5.5625 C 2.191406 -5.125 2.078125 -4.625 2.078125 -4.0625 C 2.078125 -3.519531 2.191406 -3.03125 2.421875 -2.59375 C 2.660156 -2.15625 2.976562 -1.8125 3.375 -1.5625 C 3.769531 -1.320312 4.210938 -1.203125 4.703125 -1.203125 C 5.191406 -1.203125 5.632812 -1.320312 6.03125 -1.5625 C 6.425781 -1.8125 6.738281 -2.15625 6.96875 -2.59375 C 7.207031 -3.03125 7.328125 -3.519531 7.328125 -4.0625 Z M 7.328125 -4.0625 "/></g></g></g><g fill="#ffffff" fill-opacity="1"><g transform="translate(232.129887, 89.552908)"><g><path d="M 5.25 -8.3125 C 7.101562 -8.3125 8.03125 -7.195312 8.03125 -4.96875 L 8.03125 -0.75 C 8.03125 -0.539062 7.960938 -0.363281 7.828125 -0.21875 C 7.691406 -0.0703125 7.515625 0 7.296875 0 C 7.085938 0 6.910156 -0.0703125 6.765625 -0.21875 C 6.628906 -0.363281 6.5625 -0.539062 6.5625 -0.75 L 6.5625 -4.953125 C 6.5625 -5.554688 6.421875 -6.039062 6.140625 -6.40625 C 5.859375 -6.769531 5.40625 -6.953125 4.78125 -6.953125 C 4.363281 -6.953125 3.988281 -6.859375 3.65625 -6.671875 C 3.320312 -6.492188 3.054688 -6.253906 2.859375 -5.953125 C 2.671875 -5.648438 2.578125 -5.316406 2.578125 -4.953125 L 2.578125 -0.75 C 2.578125 -0.539062 2.503906 -0.363281 2.359375 -0.21875 C 2.222656 -0.0703125 2.046875 0 1.828125 0 C 1.609375 0 1.429688 -0.0664062 1.296875 -0.203125 C 1.171875 -0.347656 1.109375 -0.53125 1.109375 -0.75 L 1.109375 -7.390625 C 1.109375 -7.597656 1.175781 -7.769531 1.3125 -7.90625 C 1.445312 -8.050781 1.617188 -8.125 1.828125 -8.125 C 2.046875 -8.125 2.222656 -8.050781 2.359375 -7.90625 C 2.503906 -7.769531 2.578125 -7.597656 2.578125 -7.390625 L 2.578125 -6.84375 C 2.847656 -7.257812 3.222656 -7.609375 3.703125 -7.890625 C 4.179688 -8.171875 4.695312 -8.3125 5.25 -8.3125 Z M 5.25 -8.3125 "/></g></g></g><g fill="#ffffff" fill-opacity="1"><g transform="translate(251.385986, 89.552908)"><g><path d="M 7.703125 -8.234375 C 7.910156 -8.234375 8.082031 -8.160156 8.21875 -8.015625 C 8.363281 -7.878906 8.4375 -7.703125 8.4375 -7.484375 L 8.4375 -0.75 C 8.4375 -0.539062 8.363281 -0.363281 8.21875 -0.21875 C 8.082031 -0.0703125 7.910156 0 7.703125 0 C 7.484375 0 7.304688 -0.0664062 7.171875 -0.203125 C 7.035156 -0.347656 6.96875 -0.53125 6.96875 -0.75 L 6.96875 -1.140625 C 6.695312 -0.785156 6.328125 -0.476562 5.859375 -0.21875 C 5.398438 0.03125 4.898438 0.15625 4.359375 0.15625 C 3.660156 0.15625 3.019531 -0.0234375 2.4375 -0.390625 C 1.863281 -0.753906 1.414062 -1.257812 1.09375 -1.90625 C 0.769531 -2.550781 0.609375 -3.273438 0.609375 -4.078125 C 0.609375 -4.890625 0.769531 -5.617188 1.09375 -6.265625 C 1.414062 -6.910156 1.863281 -7.410156 2.4375 -7.765625 C 3.007812 -8.128906 3.632812 -8.3125 4.3125 -8.3125 C 4.863281 -8.3125 5.375 -8.195312 5.84375 -7.96875 C 6.3125 -7.75 6.6875 -7.460938 6.96875 -7.109375 L 6.96875 -7.484375 C 6.96875 -7.691406 7.035156 -7.867188 7.171875 -8.015625 C 7.304688 -8.160156 7.484375 -8.234375 7.703125 -8.234375 Z M 4.53125 -1.203125 C 5.019531 -1.203125 5.453125 -1.328125 5.828125 -1.578125 C 6.203125 -1.828125 6.492188 -2.171875 6.703125 -2.609375 C 6.921875 -3.046875 7.03125 -3.535156 7.03125 -4.078125 C 7.03125 -4.617188 6.921875 -5.101562 6.703125 -5.53125 C 6.492188 -5.96875 6.203125 -6.3125 5.828125 -6.5625 C 5.453125 -6.820312 5.019531 -6.953125 4.53125 -6.953125 C 4.039062 -6.953125 3.609375 -6.828125 3.234375 -6.578125 C 2.859375 -6.328125 2.5625 -5.984375 2.34375 -5.546875 C 2.132812 -5.117188 2.03125 -4.628906 2.03125 -4.078125 C 2.03125 -3.535156 2.132812 -3.046875 2.34375 -2.609375 C 2.5625 -2.171875 2.859375 -1.828125 3.234375 -1.578125 C 3.609375 -1.328125 4.039062 -1.203125 4.53125 -1.203125 Z M 4.53125 -1.203125 "/></g></g></g><g fill="#ffffff" fill-opacity="1"><g transform="translate(271.029887, 89.552908)"><g><path d="M 2.703125 -0.75 C 2.703125 -0.539062 2.628906 -0.363281 2.484375 -0.21875 C 2.335938 -0.0703125 2.160156 0 1.953125 0 C 1.742188 0 1.566406 -0.0703125 1.421875 -0.21875 C 1.285156 -0.363281 1.21875 -0.539062 1.21875 -0.75 L 1.21875 -10.734375 C 1.21875 -10.941406 1.289062 -11.117188 1.4375 -11.265625 C 1.582031 -11.410156 1.757812 -11.484375 1.96875 -11.484375 C 2.175781 -11.484375 2.347656 -11.410156 2.484375 -11.265625 C 2.628906 -11.117188 2.703125 -10.941406 2.703125 -10.734375 Z M 2.703125 -0.75 "/></g></g></g></svg>