<svg xmlns="http://www.w3.org/2000/svg" xmlns:xlink="http://www.w3.org/1999/xlink" width="500" zoomAndPan="magnify" viewBox="0 0 375 374.999991" height="500" preserveAspectRatio="xMidYMid meet" version="1.0"><defs><g/><clipPath id="4aaa8dc090"><path d="M 23.941406 26.902344 L 362 26.902344 L 362 365 L 23.941406 365 Z M 23.941406 26.902344 " clip-rule="nonzero"/></clipPath></defs><g clip-path="url(#4aaa8dc090)"><path fill="#568676" d="M 348.335938 26.902344 L 290.890625 26.902344 L 277.375 195.855469 L 226.6875 195.855469 L 226.6875 145.171875 L 125.3125 195.855469 L 125.3125 145.171875 L 23.941406 195.855469 L 23.941406 364.8125 L 361.851562 364.8125 Z M 91.523438 263.4375 L 57.730469 263.4375 L 57.730469 229.648438 L 91.523438 229.648438 Z M 159.105469 263.4375 L 125.3125 263.4375 L 125.3125 229.648438 L 159.105469 229.648438 Z M 192.894531 229.648438 L 226.6875 229.648438 L 226.6875 263.4375 L 192.894531 263.4375 Z M 91.523438 331.019531 L 57.730469 331.019531 L 57.730469 297.230469 L 91.523438 297.230469 Z M 159.105469 331.019531 L 125.3125 331.019531 L 125.3125 297.230469 L 159.105469 297.230469 Z M 192.894531 297.230469 L 226.6875 297.230469 L 226.6875 331.019531 L 192.894531 331.019531 Z M 260.476562 229.648438 L 294.269531 229.648438 L 294.269531 263.4375 L 260.476562 263.4375 Z M 260.476562 297.230469 L 294.269531 297.230469 L 294.269531 331.019531 L 260.476562 331.019531 Z M 260.476562 297.230469 " fill-opacity="1" fill-rule="nonzero"/></g><g fill="#568676" fill-opacity="1"><g transform="translate(13.1444, 145.913065)"><g><path d="M 100.15625 -33.921875 C 100.15625 -22.347656 95.84375 -13.421875 87.21875 -7.140625 C 78.601562 -0.867188 66.503906 2.265625 50.921875 2.265625 C 34.441406 2.265625 21.585938 -0.34375 12.359375 -5.5625 L 12.359375 -23.03125 C 18.335938 -20 24.75 -17.613281 31.59375 -15.875 C 38.4375 -14.132812 45.03125 -13.265625 51.375 -13.265625 C 61.207031 -13.265625 68.769531 -14.832031 74.0625 -17.96875 C 79.351562 -21.113281 82 -25.898438 82 -32.328125 C 82 -37.160156 79.898438 -41.296875 75.703125 -44.734375 C 71.515625 -48.179688 63.332031 -52.25 51.15625 -56.9375 C 39.582031 -61.25 31.359375 -65.007812 26.484375 -68.21875 C 21.609375 -71.4375 17.976562 -75.085938 15.59375 -79.171875 C 13.207031 -83.253906 12.015625 -88.128906 12.015625 -93.796875 C 12.015625 -103.929688 16.132812 -111.925781 24.375 -117.78125 C 32.625 -123.644531 43.929688 -126.578125 58.296875 -126.578125 C 71.679688 -126.578125 84.765625 -123.859375 97.546875 -118.421875 L 90.859375 -103.109375 C 78.378906 -108.242188 67.070312 -110.8125 56.9375 -110.8125 C 48.019531 -110.8125 41.289062 -109.410156 36.75 -106.609375 C 32.207031 -103.816406 29.9375 -99.960938 29.9375 -95.046875 C 29.9375 -91.722656 30.785156 -88.890625 32.484375 -86.546875 C 34.191406 -84.203125 36.9375 -81.96875 40.71875 -79.84375 C 44.5 -77.726562 51.757812 -74.671875 62.5 -70.671875 C 77.238281 -65.296875 87.195312 -59.882812 92.375 -54.4375 C 97.5625 -49 100.15625 -42.160156 100.15625 -33.921875 Z M 100.15625 -33.921875 "/></g></g></g></svg>